<svg width="18" height="18" viewBox="0 0 18 18" fill="none" xmlns="http://www.w3.org/2000/svg">
<path d="M12.5316 8.27281L10.6057 6.83192C10.2567 6.57088 9.77442 6.8367 9.77442 7.28932V8.17058H0.527344C0.236109 8.17058 0 8.42115 0 8.73021C0 9.03927 0.236109 9.28983 0.527344 9.28983H9.77442V10.1711C9.77442 10.6267 10.2593 10.8875 10.6056 10.6285L12.5315 9.18761C12.8306 8.96395 12.8263 8.49379 12.5316 8.27281Z" fill="white"/>
<path d="M9.78772 17.4452C6.75866 17.4452 4.09845 15.7006 2.67441 13.0881C2.52859 12.8206 2.61472 12.4782 2.86682 12.3235C3.11897 12.1688 3.44152 12.2602 3.58735 12.5277C4.82598 14.8 7.14123 16.3259 9.78772 16.3259C13.7344 16.3259 16.9453 12.9185 16.9453 8.73015C16.9453 4.54184 13.7344 1.13439 9.78772 1.13439C7.13986 1.13439 4.82538 2.66153 3.58739 4.93257C3.44156 5.20007 3.119 5.29155 2.86686 5.13679C2.61475 4.98204 2.52862 4.6397 2.67445 4.37216C4.09873 1.7593 6.75915 0.0151367 9.78772 0.0151367C14.3267 0.0151367 18 3.91293 18 8.73015C18 13.547 14.3271 17.4452 9.78772 17.4452Z" fill="white"/>
</svg>
