<svg width="598" height="631" viewBox="0 0 598 631" fill="none" xmlns="http://www.w3.org/2000/svg">
<g style="mix-blend-mode:screen" opacity="0.857282">
<path fill-rule="evenodd" clip-rule="evenodd" d="M299 602C464.133 602 598 467.238 598 301C598 134.762 464.133 0 299 0C133.867 0 0 134.762 0 301C0 467.238 133.867 602 299 602Z" fill="url(#paint0_radial)"/>
</g>
<path d="M204.51 211.374C204.585 211.515 204.76 211.568 204.901 211.493C205.042 211.418 205.095 211.243 205.021 211.103C204.946 210.963 204.771 210.91 204.63 210.985C204.489 211.06 204.436 211.234 204.51 211.374Z" fill="white"/>
<path d="M206.449 212.998C206.524 213.138 206.699 213.191 206.84 213.116C206.981 213.041 207.034 212.866 206.96 212.726C206.885 212.586 206.71 212.533 206.569 212.608C206.428 212.683 206.375 212.857 206.449 212.998Z" fill="white"/>
<path d="M191.564 199.958C191.71 199.881 191.877 199.932 191.954 200.077C192.031 200.222 191.98 200.389 191.834 200.467C191.688 200.544 191.521 200.494 191.444 200.348C191.366 200.203 191.418 200.036 191.564 199.958Z" fill="white"/>
<path d="M188.286 183.588C188.432 183.511 188.599 183.561 188.676 183.707C188.753 183.852 188.702 184.019 188.556 184.096C188.41 184.174 188.243 184.123 188.166 183.978C188.088 183.833 188.14 183.666 188.286 183.588Z" fill="white"/>
<path d="M205.033 193.355C205.108 193.496 205.283 193.549 205.424 193.474C205.565 193.399 205.619 193.224 205.544 193.084C205.469 192.944 205.295 192.891 205.154 192.966C205.013 193.041 204.959 193.215 205.033 193.355Z" fill="white"/>
<path d="M212.925 191.394C213 191.535 213.175 191.588 213.316 191.513C213.457 191.438 213.51 191.263 213.436 191.123C213.361 190.982 213.186 190.929 213.045 191.004C212.904 191.079 212.851 191.254 212.925 191.394Z" fill="white"/>
<path d="M195.057 168.347C195.132 168.487 195.307 168.54 195.448 168.465C195.589 168.39 195.642 168.215 195.568 168.075C195.493 167.935 195.318 167.882 195.177 167.957C195.036 168.032 194.983 168.206 195.057 168.347Z" fill="white"/>
<path d="M199.082 164.391C199.156 164.531 199.331 164.584 199.472 164.509C199.613 164.434 199.667 164.26 199.592 164.119C199.518 163.979 199.343 163.926 199.202 164.001C199.061 164.076 199.007 164.25 199.082 164.391Z" fill="white"/>
<path d="M201.104 187.11C201.25 187.032 201.417 187.083 201.495 187.228C201.572 187.373 201.52 187.54 201.375 187.618C201.229 187.695 201.061 187.645 200.984 187.499C200.907 187.354 200.958 187.187 201.104 187.11Z" fill="white"/>
<path d="M154.96 164.196C155.106 164.119 155.273 164.169 155.35 164.315C155.428 164.46 155.376 164.627 155.23 164.704C155.084 164.782 154.917 164.731 154.84 164.586C154.763 164.441 154.851 164.254 154.96 164.196Z" fill="white"/>
<path d="M224.363 149.738C224.509 149.66 224.676 149.711 224.753 149.856C224.831 150.001 224.779 150.168 224.633 150.246C224.487 150.324 224.32 150.273 224.243 150.128C224.166 149.982 224.217 149.815 224.363 149.738Z" fill="white"/>
<path d="M223.38 218.71C223.525 218.632 223.693 218.683 223.77 218.828C223.847 218.973 223.796 219.14 223.65 219.218C223.504 219.296 223.337 219.245 223.259 219.1C223.219 218.935 223.27 218.768 223.38 218.71Z" fill="white"/>
<path d="M154.167 214.348C154.313 214.27 154.48 214.321 154.558 214.466C154.635 214.612 154.583 214.779 154.437 214.856C154.292 214.934 154.124 214.883 154.047 214.738C153.97 214.593 154.021 214.426 154.167 214.348Z" fill="white"/>
<path d="M191.352 158.21C191.497 158.133 191.665 158.183 191.742 158.329C191.819 158.474 191.768 158.641 191.622 158.718C191.476 158.796 191.309 158.745 191.231 158.6C191.154 158.455 191.206 158.288 191.352 158.21Z" fill="white"/>
<path d="M209.047 210.406C209.122 210.546 209.297 210.599 209.437 210.524C209.578 210.449 209.632 210.275 209.558 210.134C209.483 209.994 209.308 209.941 209.167 210.016C209.026 210.091 208.972 210.265 209.047 210.406Z" fill="white"/>
<path d="M161.412 185.305C161.487 185.445 161.662 185.498 161.803 185.423C161.944 185.348 161.997 185.174 161.923 185.033C161.848 184.893 161.673 184.84 161.532 184.915C161.391 184.99 161.338 185.164 161.412 185.305Z" fill="white"/>
<path d="M181.029 221.671C181.175 221.593 181.342 221.644 181.42 221.789C181.497 221.935 181.445 222.102 181.299 222.179C181.153 222.257 180.986 222.206 180.909 222.061C180.832 221.916 180.883 221.749 181.029 221.671Z" fill="white"/>
<path d="M138.327 188.779C138.472 188.701 138.64 188.752 138.717 188.897C138.794 189.043 138.743 189.21 138.597 189.287C138.451 189.365 138.284 189.314 138.206 189.169C138.129 189.024 138.181 188.856 138.327 188.779Z" fill="white"/>
<path d="M198.092 210.037C198.167 210.178 198.342 210.231 198.483 210.156C198.624 210.081 198.677 209.906 198.603 209.766C198.528 209.626 198.353 209.573 198.212 209.648C198.071 209.723 198.018 209.897 198.092 210.037Z" fill="white"/>
<path d="M275.253 160C275.33 160.145 275.278 160.312 275.132 160.389C274.986 160.467 274.819 160.416 274.742 160.272C274.665 160.127 274.717 159.96 274.863 159.883C274.972 159.825 275.176 159.855 275.253 160Z" fill="white"/>
<path d="M273.4 162.146C273.477 162.291 273.425 162.457 273.279 162.535C273.133 162.612 272.966 162.562 272.889 162.417C272.812 162.273 272.864 162.106 273.01 162.028C273.156 161.951 273.323 162.001 273.4 162.146Z" fill="white"/>
<path d="M287.518 145.589C287.595 145.733 287.543 145.9 287.397 145.978C287.251 146.055 287.084 146.005 287.007 145.86C286.93 145.715 286.982 145.549 287.128 145.471C287.274 145.394 287.441 145.444 287.518 145.589Z" fill="white"/>
<path d="M305.698 141.863C305.775 142.008 305.723 142.174 305.578 142.252C305.432 142.329 305.265 142.279 305.188 142.134C305.111 141.99 305.162 141.823 305.308 141.745C305.454 141.668 305.621 141.718 305.698 141.863Z" fill="white"/>
<path d="M295.204 160.485C295.281 160.629 295.229 160.796 295.083 160.874C294.938 160.951 294.77 160.901 294.694 160.756C294.617 160.611 294.668 160.445 294.814 160.367C294.924 160.309 295.127 160.34 295.204 160.485Z" fill="white"/>
<path d="M297.331 169.147C297.408 169.292 297.356 169.458 297.21 169.536C297.064 169.613 296.897 169.563 296.82 169.418C296.743 169.274 296.795 169.107 296.941 169.029C297.087 168.952 297.254 169.002 297.331 169.147Z" fill="white"/>
<path d="M322.434 149.673C322.508 149.813 322.683 149.865 322.824 149.79C322.965 149.715 323.019 149.541 322.945 149.401C322.87 149.261 322.696 149.209 322.555 149.284C322.414 149.359 322.36 149.533 322.434 149.673Z" fill="white"/>
<path d="M326.809 154.03C326.883 154.17 327.058 154.222 327.199 154.147C327.34 154.072 327.394 153.898 327.32 153.758C327.245 153.619 327.071 153.566 326.93 153.641C326.789 153.716 326.735 153.89 326.809 154.03Z" fill="white"/>
<path d="M301.746 155.985C301.823 156.13 301.772 156.296 301.626 156.374C301.48 156.452 301.313 156.401 301.236 156.256C301.159 156.112 301.21 155.945 301.356 155.867C301.466 155.809 301.669 155.84 301.746 155.985Z" fill="white"/>
<path d="M327.38 105.133C327.457 105.277 327.405 105.444 327.259 105.522C327.113 105.599 326.946 105.549 326.869 105.404C326.792 105.259 326.844 105.093 326.99 105.015C327.117 104.901 327.303 104.988 327.38 105.133Z" fill="white"/>
<path d="M342.976 181.357C343.053 181.502 343.002 181.668 342.856 181.746C342.71 181.823 342.543 181.773 342.466 181.628C342.389 181.484 342.44 181.317 342.586 181.239C342.696 181.181 342.899 181.212 342.976 181.357Z" fill="white"/>
<path d="M266.082 180.935C266.157 181.075 266.331 181.128 266.472 181.053C266.613 180.978 266.667 180.803 266.593 180.664C266.518 180.524 266.344 180.471 266.203 180.546C266.062 180.621 266.008 180.795 266.082 180.935Z" fill="white"/>
<path d="M271.825 104.55C271.902 104.695 271.85 104.861 271.704 104.939C271.558 105.016 271.391 104.966 271.314 104.821C271.237 104.677 271.289 104.51 271.435 104.432C271.525 104.338 271.748 104.405 271.825 104.55Z" fill="white"/>
<path d="M333.771 145.13C333.848 145.274 333.797 145.441 333.651 145.519C333.505 145.596 333.338 145.546 333.261 145.401C333.184 145.256 333.236 145.09 333.381 145.012C333.508 144.898 333.675 144.949 333.771 145.13Z" fill="white"/>
<path d="M275.792 165.237C275.866 165.377 276.041 165.429 276.182 165.354C276.323 165.279 276.377 165.105 276.302 164.965C276.228 164.825 276.053 164.773 275.912 164.848C275.771 164.923 275.717 165.097 275.792 165.237Z" fill="white"/>
<path d="M303.861 112.718C303.935 112.858 304.11 112.911 304.251 112.836C304.392 112.761 304.446 112.587 304.371 112.447C304.297 112.307 304.122 112.254 303.981 112.329C303.84 112.404 303.786 112.578 303.861 112.718Z" fill="white"/>
<path d="M263.581 134.089C263.658 134.234 263.606 134.401 263.46 134.478C263.314 134.556 263.147 134.505 263.07 134.361C262.993 134.216 263.045 134.049 263.191 133.972C263.3 133.913 263.504 133.944 263.581 134.089Z" fill="white"/>
<path d="M276.796 152.961C276.873 153.105 276.821 153.272 276.675 153.35C276.529 153.427 276.362 153.377 276.285 153.232C276.208 153.087 276.26 152.921 276.406 152.843C276.552 152.765 276.719 152.816 276.796 152.961Z" fill="white"/>
<path d="M263.253 242C263.33 242.145 263.278 242.312 263.132 242.389C262.986 242.467 262.819 242.416 262.742 242.272C262.665 242.127 262.717 241.96 262.863 241.883C262.972 241.825 263.176 241.855 263.253 242Z" fill="white"/>
<path d="M261.4 244.146C261.477 244.291 261.425 244.457 261.279 244.535C261.133 244.612 260.966 244.562 260.889 244.417C260.812 244.273 260.864 244.106 261.01 244.028C261.156 243.951 261.323 244.001 261.4 244.146Z" fill="white"/>
<path d="M275.518 227.589C275.595 227.733 275.543 227.9 275.397 227.978C275.251 228.055 275.084 228.005 275.007 227.86C274.93 227.715 274.982 227.549 275.128 227.471C275.274 227.394 275.441 227.444 275.518 227.589Z" fill="white"/>
<path d="M293.698 223.863C293.775 224.008 293.723 224.174 293.578 224.252C293.432 224.329 293.265 224.279 293.188 224.134C293.111 223.99 293.162 223.823 293.308 223.745C293.454 223.668 293.621 223.718 293.698 223.863Z" fill="white"/>
<path d="M283.204 242.485C283.281 242.629 283.229 242.796 283.083 242.874C282.938 242.951 282.77 242.901 282.694 242.756C282.617 242.611 282.668 242.445 282.814 242.367C282.924 242.309 283.127 242.34 283.204 242.485Z" fill="white"/>
<path d="M285.331 251.147C285.408 251.292 285.356 251.458 285.21 251.536C285.064 251.613 284.897 251.563 284.82 251.418C284.743 251.274 284.795 251.107 284.941 251.029C285.087 250.952 285.254 251.002 285.331 251.147Z" fill="white"/>
<path d="M310.434 231.673C310.508 231.813 310.683 231.865 310.824 231.79C310.965 231.715 311.019 231.541 310.945 231.401C310.87 231.261 310.696 231.209 310.555 231.284C310.414 231.359 310.36 231.533 310.434 231.673Z" fill="white"/>
<path d="M314.809 236.03C314.883 236.17 315.058 236.222 315.199 236.147C315.34 236.072 315.394 235.898 315.32 235.758C315.245 235.619 315.071 235.566 314.93 235.641C314.789 235.716 314.735 235.89 314.809 236.03Z" fill="white"/>
<path d="M289.746 237.985C289.823 238.13 289.772 238.296 289.626 238.374C289.48 238.452 289.313 238.401 289.236 238.256C289.159 238.112 289.21 237.945 289.356 237.867C289.466 237.809 289.669 237.84 289.746 237.985Z" fill="white"/>
<path d="M315.38 187.133C315.457 187.277 315.405 187.444 315.259 187.522C315.113 187.599 314.946 187.549 314.869 187.404C314.792 187.259 314.844 187.093 314.99 187.015C315.117 186.901 315.303 186.988 315.38 187.133Z" fill="white"/>
<path d="M330.976 263.357C331.053 263.502 331.002 263.668 330.856 263.746C330.71 263.823 330.543 263.773 330.466 263.628C330.389 263.484 330.44 263.317 330.586 263.239C330.696 263.181 330.899 263.212 330.976 263.357Z" fill="white"/>
<path d="M254.082 262.935C254.157 263.075 254.331 263.128 254.472 263.053C254.613 262.978 254.667 262.803 254.593 262.664C254.518 262.524 254.344 262.471 254.203 262.546C254.062 262.621 254.008 262.795 254.082 262.935Z" fill="white"/>
<path d="M259.825 186.55C259.902 186.695 259.85 186.861 259.704 186.939C259.558 187.016 259.391 186.966 259.314 186.821C259.237 186.677 259.289 186.51 259.435 186.432C259.525 186.338 259.748 186.405 259.825 186.55Z" fill="white"/>
<path d="M321.771 227.13C321.848 227.274 321.797 227.441 321.651 227.519C321.505 227.596 321.338 227.546 321.261 227.401C321.184 227.256 321.236 227.09 321.381 227.012C321.508 226.898 321.675 226.949 321.771 227.13Z" fill="white"/>
<path d="M263.792 247.237C263.866 247.377 264.041 247.429 264.182 247.354C264.323 247.279 264.377 247.105 264.302 246.965C264.228 246.825 264.053 246.773 263.912 246.848C263.771 246.923 263.717 247.097 263.792 247.237Z" fill="white"/>
<path d="M291.861 194.718C291.935 194.858 292.11 194.911 292.251 194.836C292.392 194.761 292.446 194.587 292.371 194.447C292.297 194.307 292.122 194.254 291.981 194.329C291.84 194.404 291.786 194.578 291.861 194.718Z" fill="white"/>
<path d="M251.581 216.089C251.658 216.234 251.606 216.401 251.46 216.478C251.314 216.556 251.147 216.505 251.07 216.361C250.993 216.216 251.045 216.049 251.191 215.972C251.3 215.913 251.504 215.944 251.581 216.089Z" fill="white"/>
<path d="M264.796 234.961C264.873 235.105 264.821 235.272 264.675 235.35C264.529 235.427 264.362 235.377 264.285 235.232C264.208 235.087 264.26 234.921 264.406 234.843C264.552 234.765 264.719 234.816 264.796 234.961Z" fill="white"/>
<path d="M245.02 200.681C245.089 200.811 245.249 200.861 245.379 200.792C245.508 200.723 245.556 200.562 245.487 200.433C245.418 200.303 245.257 200.253 245.128 200.322C244.999 200.39 244.951 200.551 245.02 200.681Z" fill="white"/>
<path d="M246.807 202.189C246.876 202.319 247.036 202.368 247.165 202.3C247.295 202.231 247.343 202.07 247.274 201.94C247.205 201.81 247.044 201.76 246.915 201.829C246.786 201.898 246.737 202.059 246.807 202.189Z" fill="white"/>
<path d="M233.087 190.082C233.22 190.011 233.374 190.058 233.446 190.193C233.517 190.327 233.47 190.481 233.337 190.553C233.203 190.624 233.049 190.576 232.978 190.442C232.906 190.307 232.953 190.153 233.087 190.082Z" fill="white"/>
<path d="M230.009 174.947C230.142 174.876 230.296 174.923 230.367 175.058C230.439 175.192 230.392 175.346 230.259 175.418C230.125 175.489 229.971 175.441 229.9 175.307C229.828 175.172 229.875 175.018 230.009 174.947Z" fill="white"/>
<path d="M245.424 184.039C245.493 184.169 245.654 184.219 245.783 184.15C245.912 184.082 245.961 183.921 245.892 183.791C245.823 183.661 245.662 183.611 245.533 183.68C245.404 183.748 245.355 183.909 245.424 184.039Z" fill="white"/>
<path d="M252.661 182.261C252.73 182.391 252.891 182.441 253.02 182.372C253.149 182.303 253.198 182.142 253.129 182.012C253.059 181.882 252.899 181.833 252.77 181.901C252.641 181.97 252.592 182.131 252.661 182.261Z" fill="white"/>
<path d="M236.161 160.897C236.23 161.027 236.391 161.077 236.52 161.008C236.649 160.939 236.697 160.778 236.628 160.648C236.559 160.518 236.399 160.469 236.27 160.537C236.14 160.606 236.092 160.767 236.161 160.897Z" fill="white"/>
<path d="M239.839 157.26C239.908 157.39 240.069 157.439 240.198 157.371C240.327 157.302 240.376 157.141 240.306 157.011C240.237 156.881 240.077 156.832 239.948 156.9C239.818 156.969 239.77 157.13 239.839 157.26Z" fill="white"/>
<path d="M241.791 178.254C241.925 178.183 242.078 178.23 242.15 178.365C242.221 178.499 242.175 178.653 242.041 178.724C241.908 178.795 241.754 178.748 241.682 178.613C241.611 178.479 241.657 178.325 241.791 178.254Z" fill="white"/>
<path d="M199.333 156.895C199.467 156.824 199.621 156.871 199.692 157.006C199.764 157.14 199.717 157.294 199.583 157.365C199.45 157.436 199.296 157.389 199.224 157.254C199.153 157.12 199.233 156.948 199.333 156.895Z" fill="white"/>
<path d="M262.986 143.831C263.12 143.76 263.273 143.808 263.345 143.942C263.416 144.077 263.37 144.231 263.236 144.302C263.103 144.373 262.949 144.325 262.877 144.191C262.806 144.056 262.852 143.902 262.986 143.831Z" fill="white"/>
<path d="M262.373 207.536C262.507 207.465 262.66 207.513 262.732 207.647C262.803 207.781 262.757 207.936 262.623 208.007C262.49 208.078 262.336 208.03 262.264 207.896C262.226 207.743 262.273 207.589 262.373 207.536Z" fill="white"/>
<path d="M198.816 203.216C198.95 203.145 199.104 203.193 199.175 203.327C199.247 203.462 199.2 203.616 199.066 203.687C198.933 203.758 198.779 203.71 198.708 203.576C198.636 203.441 198.683 203.287 198.816 203.216Z" fill="white"/>
<path d="M232.716 151.518C232.85 151.447 233.004 151.495 233.075 151.629C233.147 151.764 233.1 151.918 232.967 151.989C232.833 152.06 232.679 152.013 232.608 151.878C232.536 151.744 232.583 151.589 232.716 151.518Z" fill="white"/>
<path d="M249.181 199.805C249.25 199.935 249.41 199.985 249.539 199.916C249.669 199.848 249.717 199.687 249.648 199.557C249.579 199.427 249.418 199.377 249.289 199.446C249.16 199.514 249.112 199.675 249.181 199.805Z" fill="white"/>
<path d="M205.345 176.42C205.414 176.55 205.575 176.599 205.704 176.531C205.833 176.462 205.882 176.301 205.813 176.171C205.744 176.041 205.583 175.991 205.454 176.06C205.325 176.129 205.276 176.29 205.345 176.42Z" fill="white"/>
<path d="M223.507 210.093C223.64 210.022 223.794 210.07 223.866 210.204C223.937 210.339 223.891 210.493 223.757 210.564C223.623 210.635 223.47 210.587 223.398 210.453C223.327 210.319 223.373 210.164 223.507 210.093Z" fill="white"/>
<path d="M184.167 179.532C184.3 179.461 184.454 179.508 184.525 179.643C184.597 179.777 184.55 179.931 184.417 180.002C184.283 180.073 184.129 180.026 184.058 179.891C183.986 179.757 184.033 179.603 184.167 179.532Z" fill="white"/>
<path d="M239.122 199.419C239.191 199.549 239.352 199.599 239.481 199.53C239.61 199.462 239.659 199.301 239.59 199.171C239.521 199.041 239.36 198.991 239.231 199.06C239.102 199.128 239.053 199.289 239.122 199.419Z" fill="white"/>
<path d="M309.504 153.415C309.575 153.549 309.528 153.702 309.393 153.774C309.259 153.845 309.105 153.799 309.034 153.666C308.963 153.532 309.01 153.379 309.145 153.307C309.246 153.253 309.434 153.282 309.504 153.415Z" fill="white"/>
<path d="M307.795 155.393C307.866 155.527 307.818 155.681 307.684 155.752C307.549 155.824 307.395 155.777 307.324 155.644C307.254 155.51 307.301 155.357 307.436 155.285C307.57 155.214 307.724 155.26 307.795 155.393Z" fill="white"/>
<path d="M320.818 140.129C320.888 140.262 320.841 140.416 320.706 140.487C320.572 140.559 320.418 140.513 320.347 140.379C320.276 140.246 320.323 140.092 320.458 140.021C320.593 139.949 320.747 139.995 320.818 140.129Z" fill="white"/>
<path d="M337.582 136.69C337.653 136.823 337.605 136.977 337.471 137.048C337.336 137.12 337.182 137.073 337.111 136.94C337.041 136.807 337.088 136.653 337.223 136.581C337.357 136.51 337.511 136.556 337.582 136.69Z" fill="white"/>
<path d="M327.901 153.856C327.972 153.99 327.924 154.143 327.79 154.215C327.655 154.286 327.501 154.24 327.43 154.107C327.359 153.973 327.407 153.82 327.541 153.748C327.642 153.694 327.83 153.723 327.901 153.856Z" fill="white"/>
<path d="M329.859 161.84C329.93 161.973 329.883 162.127 329.748 162.198C329.614 162.27 329.46 162.224 329.389 162.09C329.318 161.957 329.365 161.803 329.5 161.732C329.634 161.66 329.789 161.706 329.859 161.84Z" fill="white"/>
<path d="M353.012 143.884C353.081 144.012 353.242 144.061 353.372 143.992C353.502 143.923 353.551 143.762 353.483 143.633C353.414 143.504 353.253 143.456 353.123 143.525C352.993 143.594 352.943 143.755 353.012 143.884Z" fill="white"/>
<path d="M357.045 147.898C357.113 148.027 357.274 148.076 357.404 148.007C357.534 147.937 357.584 147.777 357.516 147.648C357.447 147.519 357.286 147.471 357.156 147.54C357.026 147.609 356.976 147.769 357.045 147.898Z" fill="white"/>
<path d="M333.935 149.707C334.005 149.841 333.958 149.994 333.823 150.066C333.689 150.137 333.535 150.091 333.464 149.958C333.393 149.824 333.44 149.67 333.575 149.599C333.676 149.545 333.864 149.574 333.935 149.707Z" fill="white"/>
<path d="M357.585 102.829C357.656 102.962 357.608 103.116 357.473 103.188C357.339 103.259 357.185 103.213 357.114 103.079C357.043 102.946 357.091 102.792 357.225 102.721C357.342 102.616 357.514 102.696 357.585 102.829Z" fill="white"/>
<path d="M371.945 173.082C372.016 173.215 371.968 173.369 371.834 173.44C371.699 173.512 371.545 173.465 371.474 173.332C371.403 173.199 371.451 173.045 371.585 172.973C371.686 172.92 371.874 172.948 371.945 173.082Z" fill="white"/>
<path d="M301.043 172.714C301.111 172.843 301.272 172.891 301.402 172.822C301.532 172.753 301.582 172.592 301.514 172.463C301.445 172.334 301.284 172.286 301.154 172.355C301.024 172.424 300.974 172.585 301.043 172.714Z" fill="white"/>
<path d="M306.359 102.307C306.43 102.44 306.382 102.594 306.247 102.666C306.113 102.737 305.959 102.691 305.888 102.557C305.817 102.424 305.865 102.27 305.999 102.199C306.082 102.112 306.288 102.174 306.359 102.307Z" fill="white"/>
<path d="M363.467 139.693C363.538 139.827 363.49 139.98 363.356 140.052C363.221 140.123 363.067 140.077 362.996 139.944C362.925 139.81 362.973 139.656 363.108 139.585C363.224 139.48 363.378 139.526 363.467 139.693Z" fill="white"/>
<path d="M310 158.242C310.069 158.371 310.23 158.419 310.36 158.35C310.49 158.281 310.539 158.12 310.471 157.991C310.402 157.862 310.241 157.814 310.111 157.883C309.981 157.952 309.931 158.113 310 158.242Z" fill="white"/>
<path d="M335.896 109.827C335.965 109.956 336.126 110.004 336.256 109.935C336.386 109.866 336.435 109.706 336.367 109.577C336.298 109.448 336.137 109.399 336.007 109.468C335.877 109.538 335.828 109.698 335.896 109.827Z" fill="white"/>
<path d="M298.749 129.536C298.82 129.669 298.772 129.823 298.637 129.894C298.503 129.966 298.349 129.92 298.278 129.786C298.207 129.653 298.255 129.499 298.389 129.428C298.49 129.374 298.678 129.402 298.749 129.536Z" fill="white"/>
<path d="M310.929 146.926C311 147.06 310.952 147.213 310.818 147.285C310.683 147.356 310.529 147.31 310.458 147.177C310.387 147.043 310.435 146.89 310.57 146.818C310.704 146.747 310.858 146.793 310.929 146.926Z" fill="white"/>
<path d="M299.504 229.415C299.575 229.549 299.528 229.702 299.393 229.774C299.259 229.845 299.105 229.799 299.034 229.666C298.963 229.532 299.01 229.379 299.145 229.307C299.246 229.253 299.434 229.282 299.504 229.415Z" fill="white"/>
<path d="M297.795 231.393C297.866 231.527 297.818 231.681 297.684 231.752C297.549 231.824 297.395 231.777 297.324 231.644C297.254 231.51 297.301 231.357 297.436 231.285C297.57 231.214 297.724 231.26 297.795 231.393Z" fill="white"/>
<path d="M310.818 216.129C310.888 216.262 310.841 216.416 310.706 216.487C310.572 216.559 310.418 216.513 310.347 216.379C310.276 216.246 310.323 216.092 310.458 216.021C310.593 215.949 310.747 215.995 310.818 216.129Z" fill="white"/>
<path d="M327.582 212.69C327.653 212.823 327.605 212.977 327.471 213.048C327.336 213.12 327.182 213.073 327.111 212.94C327.041 212.807 327.088 212.653 327.223 212.581C327.357 212.51 327.511 212.556 327.582 212.69Z" fill="white"/>
<path d="M317.901 229.856C317.972 229.99 317.924 230.143 317.79 230.215C317.655 230.286 317.501 230.24 317.43 230.107C317.359 229.973 317.407 229.82 317.541 229.748C317.642 229.694 317.83 229.723 317.901 229.856Z" fill="white"/>
<path d="M319.859 237.84C319.93 237.973 319.883 238.127 319.748 238.198C319.614 238.27 319.46 238.224 319.389 238.09C319.318 237.957 319.365 237.803 319.5 237.732C319.634 237.66 319.789 237.706 319.859 237.84Z" fill="white"/>
<path d="M343.012 219.884C343.081 220.012 343.242 220.061 343.372 219.992C343.502 219.923 343.551 219.762 343.483 219.633C343.414 219.504 343.253 219.456 343.123 219.525C342.993 219.594 342.943 219.755 343.012 219.884Z" fill="white"/>
<path d="M347.045 223.898C347.113 224.027 347.274 224.076 347.404 224.007C347.534 223.937 347.584 223.777 347.516 223.648C347.447 223.519 347.286 223.471 347.156 223.54C347.026 223.609 346.976 223.769 347.045 223.898Z" fill="white"/>
<path d="M323.935 225.707C324.005 225.841 323.958 225.994 323.823 226.066C323.689 226.137 323.535 226.091 323.464 225.958C323.393 225.824 323.44 225.67 323.575 225.599C323.676 225.545 323.864 225.574 323.935 225.707Z" fill="white"/>
<path d="M347.585 178.829C347.656 178.962 347.608 179.116 347.473 179.188C347.339 179.259 347.185 179.213 347.114 179.079C347.043 178.946 347.091 178.792 347.225 178.721C347.342 178.616 347.514 178.696 347.585 178.829Z" fill="white"/>
<path d="M361.945 249.082C362.016 249.215 361.968 249.369 361.834 249.44C361.699 249.512 361.545 249.465 361.474 249.332C361.403 249.199 361.451 249.045 361.585 248.973C361.686 248.92 361.874 248.948 361.945 249.082Z" fill="white"/>
<path d="M291.043 248.714C291.111 248.843 291.272 248.891 291.402 248.822C291.532 248.753 291.582 248.592 291.514 248.463C291.445 248.334 291.284 248.286 291.154 248.355C291.024 248.424 290.974 248.585 291.043 248.714Z" fill="white"/>
<path d="M296.359 178.307C296.43 178.44 296.382 178.594 296.247 178.666C296.113 178.737 295.959 178.691 295.888 178.557C295.817 178.424 295.865 178.27 295.999 178.199C296.082 178.112 296.288 178.174 296.359 178.307Z" fill="white"/>
<path d="M353.467 215.693C353.538 215.827 353.49 215.98 353.356 216.052C353.221 216.123 353.067 216.077 352.996 215.944C352.925 215.81 352.973 215.656 353.108 215.585C353.224 215.48 353.378 215.526 353.467 215.693Z" fill="white"/>
<path d="M300 234.242C300.069 234.371 300.23 234.419 300.36 234.35C300.49 234.281 300.539 234.12 300.471 233.991C300.402 233.862 300.241 233.814 300.111 233.883C299.981 233.952 299.931 234.113 300 234.242Z" fill="white"/>
<path d="M325.896 185.827C325.965 185.956 326.126 186.004 326.256 185.935C326.386 185.866 326.435 185.706 326.367 185.577C326.298 185.448 326.137 185.399 326.007 185.468C325.877 185.538 325.828 185.698 325.896 185.827Z" fill="white"/>
<path d="M288.749 205.536C288.82 205.669 288.772 205.823 288.637 205.894C288.503 205.966 288.349 205.92 288.278 205.786C288.207 205.653 288.255 205.499 288.389 205.428C288.49 205.374 288.678 205.402 288.749 205.536Z" fill="white"/>
<path d="M300.929 222.926C301 223.06 300.952 223.213 300.818 223.285C300.683 223.356 300.529 223.31 300.458 223.177C300.387 223.043 300.435 222.89 300.57 222.818C300.704 222.747 300.858 222.793 300.929 222.926Z" fill="white"/>
<path d="M252.23 410.156C252.311 410.306 252.498 410.363 252.65 410.283C252.801 410.202 252.859 410.015 252.779 409.864C252.698 409.713 252.511 409.656 252.359 409.737C252.208 409.817 252.15 410.005 252.23 410.156Z" fill="white"/>
<path d="M254.313 411.899C254.393 412.05 254.581 412.107 254.732 412.026C254.883 411.946 254.941 411.759 254.861 411.608C254.781 411.457 254.593 411.4 254.442 411.481C254.29 411.561 254.233 411.749 254.313 411.899Z" fill="white"/>
<path d="M238.327 397.893C238.484 397.81 238.663 397.864 238.746 398.02C238.829 398.176 238.774 398.356 238.617 398.439C238.461 398.522 238.281 398.468 238.198 398.312C238.115 398.156 238.171 397.976 238.327 397.893Z" fill="white"/>
<path d="M234.805 380.311C234.961 380.227 235.141 380.282 235.224 380.438C235.307 380.594 235.252 380.773 235.095 380.857C234.938 380.94 234.759 380.885 234.676 380.729C234.593 380.573 234.648 380.394 234.805 380.311Z" fill="white"/>
<path d="M252.789 390.803C252.869 390.954 253.057 391.011 253.209 390.931C253.36 390.85 253.418 390.663 253.338 390.512C253.257 390.361 253.07 390.304 252.918 390.385C252.767 390.465 252.709 390.653 252.789 390.803Z" fill="white"/>
<path d="M261.263 388.698C261.343 388.849 261.531 388.906 261.682 388.826C261.834 388.745 261.891 388.558 261.811 388.407C261.731 388.256 261.543 388.199 261.392 388.28C261.241 388.36 261.183 388.548 261.263 388.698Z" fill="white"/>
<path d="M242.073 363.943C242.153 364.093 242.341 364.15 242.492 364.07C242.644 363.989 242.701 363.802 242.621 363.651C242.541 363.5 242.354 363.443 242.202 363.524C242.051 363.604 241.993 363.792 242.073 363.943Z" fill="white"/>
<path d="M246.394 359.695C246.474 359.845 246.662 359.902 246.813 359.822C246.965 359.741 247.022 359.554 246.942 359.403C246.862 359.252 246.674 359.195 246.523 359.276C246.372 359.356 246.314 359.544 246.394 359.695Z" fill="white"/>
<path d="M248.569 384.095C248.726 384.012 248.906 384.066 248.989 384.222C249.071 384.378 249.016 384.557 248.86 384.641C248.703 384.724 248.523 384.669 248.44 384.513C248.357 384.358 248.413 384.178 248.569 384.095Z" fill="white"/>
<path d="M199.017 359.479C199.174 359.395 199.354 359.45 199.436 359.606C199.519 359.762 199.464 359.941 199.307 360.024C199.151 360.108 198.971 360.053 198.888 359.897C198.805 359.741 198.9 359.541 199.017 359.479Z" fill="white"/>
<path d="M273.538 343.962C273.694 343.878 273.874 343.933 273.957 344.089C274.04 344.245 273.985 344.424 273.828 344.508C273.671 344.591 273.492 344.536 273.409 344.38C273.326 344.224 273.381 344.045 273.538 343.962Z" fill="white"/>
<path d="M272.493 418.037C272.65 417.953 272.829 418.008 272.912 418.164C272.995 418.32 272.94 418.499 272.783 418.583C272.627 418.666 272.447 418.611 272.364 418.455C272.32 418.279 272.376 418.099 272.493 418.037Z" fill="white"/>
<path d="M198.174 413.341C198.331 413.258 198.51 413.312 198.593 413.468C198.676 413.624 198.621 413.804 198.464 413.887C198.308 413.97 198.128 413.916 198.045 413.76C197.962 413.604 198.018 413.424 198.174 413.341Z" fill="white"/>
<path d="M238.093 353.056C238.249 352.972 238.429 353.027 238.512 353.183C238.595 353.339 238.539 353.518 238.383 353.602C238.226 353.685 238.047 353.63 237.964 353.474C237.881 353.318 237.936 353.139 238.093 353.056Z" fill="white"/>
<path d="M257.102 409.116C257.182 409.267 257.37 409.323 257.521 409.243C257.672 409.163 257.73 408.975 257.65 408.824C257.57 408.674 257.382 408.617 257.231 408.697C257.079 408.778 257.022 408.965 257.102 409.116Z" fill="white"/>
<path d="M205.949 382.15C206.029 382.301 206.217 382.358 206.368 382.277C206.519 382.197 206.577 382.009 206.497 381.859C206.417 381.708 206.229 381.651 206.078 381.731C205.926 381.812 205.869 381.999 205.949 382.15Z" fill="white"/>
<path d="M227.019 421.21C227.176 421.127 227.355 421.181 227.438 421.337C227.521 421.493 227.466 421.673 227.309 421.756C227.152 421.839 226.973 421.785 226.89 421.629C226.807 421.473 226.862 421.293 227.019 421.21Z" fill="white"/>
<path d="M181.161 385.878C181.317 385.794 181.497 385.849 181.58 386.005C181.663 386.161 181.608 386.34 181.451 386.423C181.294 386.507 181.115 386.452 181.032 386.296C180.949 386.14 181.004 385.961 181.161 385.878Z" fill="white"/>
<path d="M245.339 408.719C245.419 408.869 245.607 408.926 245.758 408.846C245.909 408.765 245.967 408.578 245.887 408.427C245.807 408.276 245.619 408.219 245.468 408.3C245.316 408.38 245.259 408.568 245.339 408.719Z" fill="white"/>
<path d="M327.5 355.53C327.583 355.686 327.528 355.865 327.373 355.948C327.217 356.031 327.038 355.976 326.955 355.82C326.872 355.664 326.926 355.485 327.082 355.402C327.199 355.34 327.417 355.374 327.5 355.53Z" fill="white"/>
<path d="M325.529 357.829C325.612 357.986 325.557 358.165 325.402 358.247C325.246 358.33 325.067 358.275 324.984 358.119C324.901 357.963 324.956 357.784 325.111 357.701C325.267 357.618 325.446 357.673 325.529 357.829Z" fill="white"/>
<path d="M340.544 340.086C340.627 340.242 340.572 340.421 340.417 340.504C340.261 340.586 340.082 340.531 339.999 340.375C339.916 340.219 339.971 340.04 340.126 339.957C340.282 339.875 340.461 339.93 340.544 340.086Z" fill="white"/>
<path d="M359.965 336.166C360.048 336.322 359.994 336.501 359.838 336.584C359.682 336.667 359.503 336.611 359.42 336.455C359.337 336.299 359.392 336.12 359.547 336.037C359.703 335.955 359.882 336.01 359.965 336.166Z" fill="white"/>
<path d="M348.835 356.149C348.918 356.305 348.864 356.484 348.708 356.566C348.552 356.649 348.373 356.594 348.29 356.438C348.207 356.282 348.262 356.103 348.417 356.02C348.534 355.958 348.752 355.992 348.835 356.149Z" fill="white"/>
<path d="M351.151 365.478C351.234 365.634 351.18 365.813 351.024 365.896C350.868 365.979 350.689 365.924 350.607 365.768C350.524 365.612 350.578 365.432 350.734 365.35C350.889 365.267 351.068 365.322 351.151 365.478Z" fill="white"/>
<path d="M377.898 344.65C377.978 344.8 378.165 344.858 378.316 344.778C378.466 344.698 378.523 344.511 378.443 344.36C378.363 344.209 378.176 344.152 378.025 344.232C377.875 344.312 377.818 344.499 377.898 344.65Z" fill="white"/>
<path d="M382.597 349.358C382.678 349.509 382.865 349.567 383.015 349.487C383.165 349.407 383.222 349.22 383.142 349.069C383.062 348.918 382.875 348.861 382.724 348.941C382.574 349.021 382.517 349.208 382.597 349.358Z" fill="white"/>
<path d="M355.808 351.34C355.891 351.496 355.837 351.675 355.681 351.757C355.526 351.84 355.347 351.785 355.264 351.629C355.181 351.473 355.235 351.294 355.391 351.211C355.508 351.149 355.725 351.183 355.808 351.34Z" fill="white"/>
<path d="M382.969 296.756C383.052 296.912 382.998 297.091 382.842 297.173C382.687 297.256 382.508 297.201 382.425 297.045C382.342 296.889 382.396 296.71 382.552 296.627C382.687 296.505 382.886 296.599 382.969 296.756Z" fill="white"/>
<path d="M400.018 378.837C400.101 378.993 400.046 379.172 399.891 379.255C399.735 379.337 399.556 379.282 399.473 379.126C399.39 378.97 399.445 378.791 399.6 378.708C399.717 378.646 399.935 378.681 400.018 378.837Z" fill="white"/>
<path d="M317.796 378.008C317.876 378.159 318.063 378.216 318.213 378.136C318.364 378.056 318.421 377.869 318.341 377.718C318.26 377.567 318.073 377.51 317.923 377.59C317.773 377.67 317.716 377.857 317.796 378.008Z" fill="white"/>
<path d="M323.564 295.858C323.647 296.014 323.592 296.193 323.437 296.276C323.281 296.359 323.102 296.304 323.019 296.148C322.936 295.991 322.991 295.812 323.146 295.73C323.242 295.629 323.481 295.702 323.564 295.858Z" fill="white"/>
<path d="M389.999 339.817C390.082 339.973 390.027 340.153 389.871 340.235C389.716 340.318 389.537 340.263 389.454 340.107C389.371 339.951 389.425 339.772 389.581 339.689C389.716 339.567 389.895 339.622 389.999 339.817Z" fill="white"/>
<path d="M328.101 361.166C328.182 361.317 328.369 361.375 328.519 361.295C328.669 361.215 328.726 361.028 328.646 360.877C328.566 360.726 328.379 360.669 328.228 360.749C328.078 360.829 328.021 361.016 328.101 361.166Z" fill="white"/>
<path d="M357.858 304.802C357.939 304.953 358.126 305.01 358.276 304.93C358.426 304.85 358.483 304.663 358.403 304.512C358.323 304.361 358.136 304.304 357.985 304.384C357.835 304.464 357.778 304.651 357.858 304.802Z" fill="white"/>
<path d="M314.893 327.597C314.976 327.753 314.921 327.932 314.766 328.015C314.61 328.098 314.431 328.043 314.348 327.887C314.265 327.73 314.32 327.551 314.475 327.469C314.592 327.407 314.81 327.441 314.893 327.597Z" fill="white"/>
<path d="M329.115 347.964C329.198 348.12 329.144 348.299 328.988 348.382C328.832 348.465 328.653 348.41 328.57 348.254C328.487 348.098 328.542 347.919 328.698 347.836C328.853 347.753 329.032 347.808 329.115 347.964Z" fill="white"/>
<path d="M315.5 442.53C315.583 442.686 315.528 442.865 315.373 442.948C315.217 443.031 315.038 442.976 314.955 442.82C314.872 442.664 314.926 442.485 315.082 442.402C315.199 442.34 315.417 442.374 315.5 442.53Z" fill="white"/>
<path d="M313.529 444.829C313.612 444.986 313.557 445.165 313.402 445.247C313.246 445.33 313.067 445.275 312.984 445.119C312.901 444.963 312.956 444.784 313.111 444.701C313.267 444.618 313.446 444.673 313.529 444.829Z" fill="white"/>
<path d="M328.544 427.086C328.627 427.242 328.572 427.421 328.417 427.504C328.261 427.586 328.082 427.531 327.999 427.375C327.916 427.219 327.971 427.04 328.126 426.957C328.282 426.875 328.461 426.93 328.544 427.086Z" fill="white"/>
<path d="M347.965 423.166C348.048 423.322 347.994 423.501 347.838 423.584C347.682 423.667 347.503 423.611 347.42 423.455C347.337 423.299 347.392 423.12 347.547 423.037C347.703 422.955 347.882 423.01 347.965 423.166Z" fill="white"/>
<path d="M336.835 443.149C336.918 443.305 336.863 443.484 336.708 443.566C336.552 443.649 336.373 443.594 336.29 443.438C336.207 443.282 336.262 443.103 336.417 443.02C336.534 442.958 336.752 442.992 336.835 443.149Z" fill="white"/>
<path d="M339.151 452.478C339.234 452.634 339.18 452.813 339.024 452.896C338.868 452.979 338.689 452.924 338.606 452.768C338.523 452.612 338.578 452.432 338.734 452.35C338.889 452.267 339.068 452.322 339.151 452.478Z" fill="white"/>
<path d="M365.898 431.65C365.978 431.8 366.165 431.858 366.316 431.778C366.466 431.698 366.523 431.511 366.443 431.36C366.363 431.209 366.176 431.152 366.025 431.232C365.875 431.312 365.818 431.499 365.898 431.65Z" fill="white"/>
<path d="M370.597 436.358C370.678 436.509 370.865 436.567 371.015 436.487C371.165 436.407 371.222 436.22 371.142 436.069C371.062 435.918 370.875 435.861 370.724 435.941C370.574 436.021 370.517 436.208 370.597 436.358Z" fill="white"/>
<path d="M343.808 438.34C343.891 438.496 343.837 438.675 343.681 438.757C343.526 438.84 343.347 438.785 343.264 438.629C343.181 438.473 343.235 438.294 343.391 438.211C343.507 438.149 343.725 438.183 343.808 438.34Z" fill="white"/>
<path d="M370.969 383.756C371.052 383.912 370.998 384.091 370.842 384.173C370.687 384.256 370.508 384.201 370.425 384.045C370.342 383.889 370.396 383.71 370.552 383.627C370.687 383.505 370.886 383.599 370.969 383.756Z" fill="white"/>
<path d="M388.018 465.837C388.101 465.993 388.046 466.172 387.891 466.255C387.735 466.337 387.556 466.282 387.473 466.126C387.39 465.97 387.445 465.791 387.6 465.708C387.717 465.646 387.935 465.681 388.018 465.837Z" fill="white"/>
<path d="M305.796 465.008C305.876 465.159 306.063 465.216 306.213 465.136C306.364 465.056 306.421 464.869 306.341 464.718C306.26 464.567 306.073 464.51 305.923 464.59C305.773 464.67 305.716 464.857 305.796 465.008Z" fill="white"/>
<path d="M311.564 382.858C311.647 383.014 311.592 383.193 311.437 383.276C311.281 383.359 311.102 383.304 311.019 383.148C310.936 382.991 310.991 382.812 311.146 382.73C311.242 382.629 311.481 382.702 311.564 382.858Z" fill="white"/>
<path d="M377.999 426.817C378.082 426.973 378.027 427.153 377.871 427.235C377.716 427.318 377.537 427.263 377.454 427.107C377.371 426.951 377.425 426.772 377.581 426.689C377.716 426.567 377.895 426.622 377.999 426.817Z" fill="white"/>
<path d="M316.101 448.166C316.182 448.317 316.369 448.375 316.519 448.295C316.669 448.215 316.726 448.028 316.646 447.877C316.566 447.726 316.379 447.669 316.228 447.749C316.078 447.829 316.021 448.016 316.101 448.166Z" fill="white"/>
<path d="M345.858 391.802C345.939 391.953 346.126 392.01 346.276 391.93C346.426 391.85 346.483 391.663 346.403 391.512C346.323 391.361 346.136 391.304 345.985 391.384C345.835 391.464 345.778 391.651 345.858 391.802Z" fill="white"/>
<path d="M302.893 414.597C302.976 414.753 302.921 414.932 302.766 415.015C302.61 415.098 302.431 415.043 302.348 414.887C302.265 414.73 302.319 414.551 302.475 414.469C302.592 414.407 302.81 414.441 302.893 414.597Z" fill="white"/>
<path d="M317.115 434.964C317.198 435.12 317.144 435.299 316.988 435.382C316.832 435.465 316.653 435.41 316.57 435.254C316.487 435.098 316.542 434.919 316.697 434.836C316.853 434.753 317.032 434.808 317.115 434.964Z" fill="white"/>
<path d="M461.568 572.667C461.76 572.667 461.915 572.511 461.915 572.318C461.915 572.125 461.76 571.968 461.568 571.968C461.375 571.968 461.22 572.125 461.22 572.318C461.22 572.511 461.375 572.667 461.568 572.667Z" fill="white"/>
<path d="M464.4 571.519C464.592 571.519 464.748 571.362 464.748 571.169C464.748 570.976 464.592 570.82 464.4 570.82C464.208 570.82 464.052 570.976 464.052 571.169C464.052 571.362 464.208 571.519 464.4 571.519Z" fill="white"/>
<path d="M442.038 580.007C442.038 579.807 442.187 579.657 442.385 579.657C442.584 579.657 442.733 579.807 442.733 580.007C442.733 580.206 442.584 580.356 442.385 580.356C442.187 580.356 442.038 580.206 442.038 580.007Z" fill="white"/>
<path d="M422.706 574.215C422.706 574.015 422.855 573.865 423.054 573.865C423.253 573.865 423.402 574.015 423.402 574.215C423.402 574.415 423.253 574.564 423.054 574.564C422.855 574.564 422.706 574.415 422.706 574.215Z" fill="white"/>
<path d="M442.634 561.883C442.826 561.883 442.982 561.727 442.982 561.534C442.982 561.34 442.826 561.184 442.634 561.184C442.442 561.184 442.286 561.34 442.286 561.534C442.286 561.727 442.442 561.883 442.634 561.883Z" fill="white"/>
<path d="M445.019 552.347C445.211 552.347 445.367 552.19 445.367 551.997C445.367 551.804 445.211 551.648 445.019 551.648C444.827 551.648 444.671 551.804 444.671 551.997C444.671 552.19 444.827 552.347 445.019 552.347Z" fill="white"/>
<path d="M410.282 558.338C410.475 558.338 410.63 558.182 410.63 557.989C410.63 557.796 410.475 557.639 410.282 557.639C410.09 557.639 409.935 557.796 409.935 557.989C409.935 558.182 410.09 558.338 410.282 558.338Z" fill="white"/>
<path d="M408.344 551.798C408.537 551.798 408.692 551.641 408.692 551.448C408.692 551.255 408.537 551.099 408.344 551.099C408.152 551.099 407.997 551.255 407.997 551.448C407.997 551.641 408.152 551.798 408.344 551.798Z" fill="white"/>
<path d="M433.738 562.532C433.738 562.332 433.888 562.183 434.086 562.183C434.285 562.183 434.434 562.332 434.434 562.532C434.434 562.732 434.285 562.882 434.086 562.882C433.888 562.882 433.738 562.732 433.738 562.532Z" fill="white"/>
<path d="M383.099 598.779C383.099 598.579 383.248 598.43 383.447 598.43C383.646 598.43 383.795 598.579 383.795 598.779C383.795 598.979 383.646 599.129 383.447 599.129C383.248 599.129 383.099 598.929 383.099 598.779Z" fill="white"/>
<path d="M407.052 516.499C407.052 516.3 407.201 516.15 407.4 516.15C407.599 516.15 407.748 516.3 407.748 516.499C407.748 516.699 407.599 516.849 407.4 516.849C407.201 516.849 407.052 516.699 407.052 516.499Z" fill="white"/>
<path d="M480.104 556.691C480.104 556.491 480.253 556.341 480.452 556.341C480.65 556.341 480.799 556.491 480.799 556.691C480.799 556.89 480.65 557.04 480.452 557.04C480.253 556.99 480.104 556.84 480.104 556.691Z" fill="white"/>
<path d="M436.174 628.086C436.174 627.887 436.323 627.737 436.521 627.737C436.72 627.737 436.869 627.887 436.869 628.086C436.869 628.286 436.72 628.436 436.521 628.436C436.323 628.436 436.174 628.286 436.174 628.086Z" fill="white"/>
<path d="M397.362 556.541C397.362 556.341 397.511 556.191 397.71 556.191C397.908 556.191 398.058 556.341 398.058 556.541C398.058 556.74 397.908 556.89 397.71 556.89C397.511 556.89 397.362 556.74 397.362 556.541Z" fill="white"/>
<path d="M463.108 567.275C463.3 567.275 463.456 567.119 463.456 566.926C463.456 566.733 463.3 566.576 463.108 566.576C462.916 566.576 462.76 566.733 462.76 566.926C462.76 567.119 462.916 567.275 463.108 567.275Z" fill="white"/>
<path d="M409.289 603.872C409.481 603.872 409.636 603.715 409.636 603.522C409.636 603.329 409.481 603.173 409.289 603.173C409.096 603.173 408.941 603.329 408.941 603.522C408.941 603.715 409.096 603.872 409.289 603.872Z" fill="white"/>
<path d="M459.232 603.572C459.232 603.372 459.381 603.223 459.58 603.223C459.779 603.223 459.928 603.372 459.928 603.572C459.928 603.772 459.779 603.922 459.58 603.922C459.381 603.922 459.232 603.772 459.232 603.572Z" fill="white"/>
<path d="M399.896 630.483C399.896 630.283 400.045 630.133 400.244 630.133C400.443 630.133 400.592 630.283 400.592 630.483C400.592 630.683 400.443 630.832 400.244 630.832C400.045 630.832 399.896 630.683 399.896 630.483Z" fill="white"/>
<path d="M456.499 578.758C456.691 578.758 456.847 578.602 456.847 578.409C456.847 578.216 456.691 578.059 456.499 578.059C456.307 578.059 456.151 578.216 456.151 578.409C456.151 578.602 456.307 578.758 456.499 578.758Z" fill="white"/>
<path d="M447.317 467.875C447.515 467.875 447.664 468.025 447.664 468.224C447.664 468.424 447.515 468.574 447.317 468.574C447.118 468.574 446.97 468.424 446.97 468.224C446.97 468.075 447.118 467.875 447.317 467.875Z" fill="white"/>
<path d="M448.557 471.074C448.755 471.074 448.904 471.224 448.904 471.424C448.904 471.623 448.755 471.773 448.557 471.773C448.358 471.773 448.209 471.623 448.209 471.424C448.209 471.224 448.358 471.074 448.557 471.074Z" fill="white"/>
<path d="M438.887 446.581C439.085 446.581 439.234 446.731 439.234 446.931C439.234 447.131 439.085 447.281 438.887 447.281C438.688 447.281 438.54 447.131 438.54 446.931C438.54 446.731 438.688 446.581 438.887 446.581Z" fill="white"/>
<path d="M445.234 425.037C445.432 425.037 445.581 425.187 445.581 425.387C445.581 425.587 445.432 425.737 445.234 425.737C445.036 425.737 444.887 425.587 444.887 425.387C444.887 425.187 445.036 425.037 445.234 425.037Z" fill="white"/>
<path d="M459.169 446.831C459.367 446.831 459.516 446.981 459.516 447.181C459.516 447.381 459.367 447.53 459.169 447.53C458.97 447.53 458.821 447.381 458.821 447.181C458.821 447.031 458.97 446.831 459.169 446.831Z" fill="white"/>
<path d="M469.632 449.48C469.83 449.48 469.979 449.63 469.979 449.83C469.979 450.03 469.83 450.18 469.632 450.18C469.433 450.18 469.285 450.03 469.285 449.83C469.285 449.63 469.433 449.48 469.632 449.48Z" fill="white"/>
<path d="M463.086 411.591C463.278 411.591 463.433 411.434 463.433 411.241C463.433 411.048 463.278 410.891 463.086 410.891C462.894 410.891 462.739 411.048 462.739 411.241C462.739 411.434 462.894 411.591 463.086 411.591Z" fill="white"/>
<path d="M470.227 409.392C470.419 409.392 470.574 409.235 470.574 409.042C470.574 408.849 470.419 408.692 470.227 408.692C470.035 408.692 469.88 408.849 469.88 409.042C469.88 409.235 470.035 409.392 470.227 409.392Z" fill="white"/>
<path d="M458.078 437.284C458.276 437.284 458.425 437.434 458.425 437.633C458.425 437.833 458.276 437.983 458.078 437.983C457.879 437.983 457.73 437.833 457.73 437.633C457.73 437.484 457.879 437.284 458.078 437.284Z" fill="white"/>
<path d="M418.307 381C418.506 381 418.654 381.15 418.654 381.35C418.654 381.55 418.506 381.7 418.307 381.7C418.109 381.7 417.96 381.55 417.96 381.35C417.911 381.15 418.109 381 418.307 381Z" fill="white"/>
<path d="M508.609 407.642C508.807 407.642 508.956 407.792 508.956 407.992C508.956 408.192 508.807 408.342 508.609 408.342C508.41 408.342 508.262 408.192 508.262 407.992C508.262 407.842 508.41 407.642 508.609 407.642Z" fill="white"/>
<path d="M464.475 489.568C464.666 489.568 464.822 489.412 464.822 489.218C464.822 489.025 464.666 488.868 464.475 488.868C464.283 488.868 464.127 489.025 464.127 489.218C464.127 489.412 464.283 489.568 464.475 489.568Z" fill="white"/>
<path d="M386.124 440.033C386.322 440.033 386.471 440.183 386.471 440.383C386.471 440.583 386.322 440.733 386.124 440.733C385.926 440.733 385.777 440.583 385.777 440.383C385.727 440.233 385.926 440.033 386.124 440.033Z" fill="white"/>
<path d="M464.673 396.895C464.871 396.895 465.02 397.045 465.02 397.245C465.02 397.445 464.871 397.595 464.673 397.595C464.475 397.595 464.326 397.445 464.326 397.245C464.276 397.045 464.425 396.895 464.673 396.895Z" fill="white"/>
<path d="M453.218 470.274C453.41 470.274 453.565 470.117 453.565 469.924C453.565 469.731 453.41 469.574 453.218 469.574C453.026 469.574 452.871 469.731 452.871 469.924C452.871 470.117 453.026 470.274 453.218 470.274Z" fill="white"/>
<path d="M413.051 410.441C413.243 410.441 413.398 410.285 413.398 410.091C413.398 409.898 413.243 409.742 413.051 409.742C412.859 409.742 412.704 409.898 412.704 410.091C412.704 410.285 412.859 410.441 413.051 410.441Z" fill="white"/>
<path d="M413.001 465.625C413.2 465.625 413.348 465.775 413.348 465.975C413.348 466.175 413.2 466.325 413.001 466.325C412.803 466.325 412.654 466.175 412.654 465.975C412.654 465.825 412.803 465.625 413.001 465.625Z" fill="white"/>
<path d="M383.446 399.695C383.645 399.695 383.793 399.845 383.793 400.044C383.793 400.244 383.645 400.394 383.446 400.394C383.248 400.394 383.099 400.244 383.099 400.044C383.099 399.895 383.248 399.695 383.446 399.695Z" fill="white"/>
<path d="M440.672 462.226C440.87 462.226 441.019 462.376 441.019 462.576C441.019 462.776 440.87 462.926 440.672 462.926C440.474 462.926 440.325 462.776 440.325 462.576C440.325 462.376 440.474 462.226 440.672 462.226Z" fill="white"/>
<path d="M237.568 278.667C237.76 278.667 237.915 278.511 237.915 278.318C237.915 278.125 237.76 277.968 237.568 277.968C237.375 277.968 237.22 278.125 237.22 278.318C237.22 278.511 237.375 278.667 237.568 278.667Z" fill="white"/>
<path d="M240.4 277.519C240.592 277.519 240.748 277.362 240.748 277.169C240.748 276.976 240.592 276.82 240.4 276.82C240.208 276.82 240.052 276.976 240.052 277.169C240.052 277.362 240.208 277.519 240.4 277.519Z" fill="white"/>
<path d="M218.037 286.007C218.037 285.807 218.187 285.657 218.385 285.657C218.584 285.657 218.733 285.807 218.733 286.007C218.733 286.206 218.584 286.356 218.385 286.356C218.187 286.356 218.037 286.206 218.037 286.007Z" fill="white"/>
<path d="M198.706 280.215C198.706 280.015 198.855 279.865 199.054 279.865C199.253 279.865 199.402 280.015 199.402 280.215C199.402 280.415 199.253 280.564 199.054 280.564C198.855 280.564 198.706 280.415 198.706 280.215Z" fill="white"/>
<path d="M218.634 267.883C218.826 267.883 218.982 267.727 218.982 267.534C218.982 267.341 218.826 267.184 218.634 267.184C218.442 267.184 218.286 267.341 218.286 267.534C218.286 267.727 218.442 267.883 218.634 267.883Z" fill="white"/>
<path d="M221.019 258.347C221.211 258.347 221.367 258.19 221.367 257.997C221.367 257.804 221.211 257.648 221.019 257.648C220.827 257.648 220.671 257.804 220.671 257.997C220.671 258.19 220.827 258.347 221.019 258.347Z" fill="white"/>
<path d="M186.282 264.338C186.475 264.338 186.63 264.182 186.63 263.989C186.63 263.796 186.475 263.639 186.282 263.639C186.09 263.639 185.935 263.796 185.935 263.989C185.935 264.182 186.09 264.338 186.282 264.338Z" fill="white"/>
<path d="M184.344 257.798C184.536 257.798 184.692 257.641 184.692 257.448C184.692 257.255 184.536 257.099 184.344 257.099C184.152 257.099 183.996 257.255 183.996 257.448C183.996 257.641 184.152 257.798 184.344 257.798Z" fill="white"/>
<path d="M209.738 268.532C209.738 268.332 209.888 268.183 210.086 268.183C210.285 268.183 210.434 268.332 210.434 268.532C210.434 268.732 210.285 268.882 210.086 268.882C209.888 268.882 209.738 268.732 209.738 268.532Z" fill="white"/>
<path d="M159.099 304.779C159.099 304.579 159.248 304.43 159.447 304.43C159.646 304.43 159.795 304.579 159.795 304.779C159.795 304.979 159.646 305.129 159.447 305.129C159.248 305.129 159.099 304.929 159.099 304.779Z" fill="white"/>
<path d="M183.052 222.499C183.052 222.3 183.201 222.15 183.4 222.15C183.599 222.15 183.748 222.3 183.748 222.499C183.748 222.699 183.599 222.849 183.4 222.849C183.201 222.849 183.052 222.699 183.052 222.499Z" fill="white"/>
<path d="M256.104 262.691C256.104 262.491 256.253 262.341 256.452 262.341C256.65 262.341 256.799 262.491 256.799 262.691C256.799 262.89 256.65 263.04 256.452 263.04C256.253 262.99 256.104 262.84 256.104 262.691Z" fill="white"/>
<path d="M212.173 334.086C212.173 333.887 212.323 333.737 212.521 333.737C212.72 333.737 212.869 333.887 212.869 334.086C212.869 334.286 212.72 334.436 212.521 334.436C212.323 334.436 212.173 334.286 212.173 334.086Z" fill="white"/>
<path d="M173.362 262.541C173.362 262.341 173.511 262.191 173.71 262.191C173.908 262.191 174.058 262.341 174.058 262.541C174.058 262.74 173.908 262.89 173.71 262.89C173.511 262.89 173.362 262.74 173.362 262.541Z" fill="white"/>
<path d="M239.108 273.275C239.3 273.275 239.456 273.119 239.456 272.926C239.456 272.733 239.3 272.576 239.108 272.576C238.916 272.576 238.76 272.733 238.76 272.926C238.76 273.119 238.916 273.275 239.108 273.275Z" fill="white"/>
<path d="M185.289 309.872C185.481 309.872 185.636 309.715 185.636 309.522C185.636 309.329 185.481 309.173 185.289 309.173C185.096 309.173 184.941 309.329 184.941 309.522C184.941 309.715 185.096 309.872 185.289 309.872Z" fill="white"/>
<path d="M235.232 309.572C235.232 309.372 235.381 309.223 235.58 309.223C235.779 309.223 235.928 309.372 235.928 309.572C235.928 309.772 235.779 309.922 235.58 309.922C235.381 309.922 235.232 309.772 235.232 309.572Z" fill="white"/>
<path d="M175.896 336.483C175.896 336.283 176.045 336.133 176.244 336.133C176.443 336.133 176.592 336.283 176.592 336.483C176.592 336.682 176.443 336.832 176.244 336.832C176.045 336.832 175.896 336.682 175.896 336.483Z" fill="white"/>
<path d="M232.499 284.758C232.691 284.758 232.847 284.602 232.847 284.409C232.847 284.216 232.691 284.059 232.499 284.059C232.307 284.059 232.151 284.216 232.151 284.409C232.151 284.602 232.307 284.758 232.499 284.758Z" fill="white"/>
<path d="M223.317 173.875C223.515 173.875 223.664 174.024 223.664 174.224C223.664 174.424 223.515 174.574 223.317 174.574C223.118 174.574 222.97 174.424 222.97 174.224C222.97 174.074 223.118 173.875 223.317 173.875Z" fill="white"/>
<path d="M224.557 177.074C224.755 177.074 224.904 177.224 224.904 177.424C224.904 177.623 224.755 177.773 224.557 177.773C224.358 177.773 224.209 177.623 224.209 177.424C224.209 177.224 224.358 177.074 224.557 177.074Z" fill="white"/>
<path d="M214.887 152.581C215.085 152.581 215.234 152.731 215.234 152.931C215.234 153.131 215.085 153.281 214.887 153.281C214.688 153.281 214.54 153.131 214.54 152.931C214.54 152.731 214.688 152.581 214.887 152.581Z" fill="white"/>
<path d="M221.234 131.037C221.432 131.037 221.581 131.187 221.581 131.387C221.581 131.587 221.432 131.737 221.234 131.737C221.036 131.737 220.887 131.587 220.887 131.387C220.887 131.187 221.036 131.037 221.234 131.037Z" fill="white"/>
<path d="M235.169 152.831C235.367 152.831 235.516 152.981 235.516 153.181C235.516 153.381 235.367 153.53 235.169 153.53C234.97 153.53 234.821 153.381 234.821 153.181C234.821 153.031 234.97 152.831 235.169 152.831Z" fill="white"/>
<path d="M245.632 155.48C245.83 155.48 245.979 155.63 245.979 155.83C245.979 156.03 245.83 156.18 245.632 156.18C245.433 156.18 245.285 156.03 245.285 155.83C245.285 155.63 245.433 155.48 245.632 155.48Z" fill="white"/>
<path d="M239.086 117.591C239.278 117.591 239.433 117.434 239.433 117.241C239.433 117.048 239.278 116.891 239.086 116.891C238.894 116.891 238.739 117.048 238.739 117.241C238.739 117.434 238.894 117.591 239.086 117.591Z" fill="white"/>
<path d="M246.227 115.392C246.419 115.392 246.574 115.235 246.574 115.042C246.574 114.849 246.419 114.692 246.227 114.692C246.035 114.692 245.88 114.849 245.88 115.042C245.88 115.235 246.035 115.392 246.227 115.392Z" fill="white"/>
<path d="M234.078 143.284C234.276 143.284 234.425 143.434 234.425 143.633C234.425 143.833 234.276 143.983 234.078 143.983C233.879 143.983 233.73 143.833 233.73 143.633C233.73 143.484 233.879 143.284 234.078 143.284Z" fill="white"/>
<path d="M194.307 87C194.506 87 194.654 87.15 194.654 87.3499C194.654 87.5498 194.506 87.6998 194.307 87.6998C194.109 87.6998 193.96 87.5498 193.96 87.3499C193.911 87.15 194.109 87 194.307 87Z" fill="white"/>
<path d="M284.609 113.642C284.807 113.642 284.956 113.792 284.956 113.992C284.956 114.192 284.807 114.342 284.609 114.342C284.41 114.342 284.262 114.192 284.262 113.992C284.262 113.842 284.41 113.642 284.609 113.642Z" fill="white"/>
<path d="M240.475 195.568C240.666 195.568 240.822 195.412 240.822 195.218C240.822 195.025 240.666 194.868 240.475 194.868C240.283 194.868 240.127 195.025 240.127 195.218C240.127 195.412 240.283 195.568 240.475 195.568Z" fill="white"/>
<path d="M162.124 146.033C162.322 146.033 162.471 146.183 162.471 146.383C162.471 146.583 162.322 146.733 162.124 146.733C161.926 146.733 161.777 146.583 161.777 146.383C161.727 146.233 161.926 146.033 162.124 146.033Z" fill="white"/>
<path d="M240.673 102.895C240.871 102.895 241.02 103.045 241.02 103.245C241.02 103.445 240.871 103.595 240.673 103.595C240.475 103.595 240.326 103.445 240.326 103.245C240.276 103.045 240.425 102.895 240.673 102.895Z" fill="white"/>
<path d="M229.218 176.274C229.41 176.274 229.565 176.117 229.565 175.924C229.565 175.731 229.41 175.574 229.218 175.574C229.026 175.574 228.871 175.731 228.871 175.924C228.871 176.117 229.026 176.274 229.218 176.274Z" fill="white"/>
<path d="M189.051 116.441C189.243 116.441 189.398 116.285 189.398 116.091C189.398 115.898 189.243 115.742 189.051 115.742C188.859 115.742 188.704 115.898 188.704 116.091C188.704 116.285 188.859 116.441 189.051 116.441Z" fill="white"/>
<path d="M189.001 171.625C189.2 171.625 189.348 171.775 189.348 171.975C189.348 172.175 189.2 172.325 189.001 172.325C188.803 172.325 188.654 172.175 188.654 171.975C188.654 171.825 188.803 171.625 189.001 171.625Z" fill="white"/>
<path d="M159.446 105.695C159.645 105.695 159.793 105.845 159.793 106.044C159.793 106.244 159.645 106.394 159.446 106.394C159.248 106.394 159.099 106.244 159.099 106.044C159.099 105.895 159.248 105.695 159.446 105.695Z" fill="white"/>
<path d="M216.672 168.226C216.87 168.226 217.019 168.376 217.019 168.576C217.019 168.776 216.87 168.926 216.672 168.926C216.474 168.926 216.325 168.776 216.325 168.576C216.325 168.376 216.474 168.226 216.672 168.226Z" fill="white"/>
<defs>
<radialGradient id="paint0_radial" cx="0" cy="0" r="1" gradientUnits="userSpaceOnUse" gradientTransform="translate(299 301) rotate(85.0934) scale(302.107 300.129)">
<stop stop-color="#3E1800"/>
<stop offset="1" stop-color="#0C0C0C" stop-opacity="0.01"/>
</radialGradient>
</defs>
</svg>
