<svg width="517" height="517" viewBox="0 0 517 517" fill="none" xmlns="http://www.w3.org/2000/svg">
<path opacity="0.892648" d="M6.07477 258.5L258.06 1.18435L510.045 258.5L258.06 515.816L6.07477 258.5Z" fill="#20212E" fill-opacity="0.32" stroke="url(#paint0_linear)"/>
<path opacity="0.807245" d="M7.81651 259.452C7.81651 259.452 38.1398 225.37 106.158 208.9C174.177 192.431 225.4 225.394 270.931 259.452C316.462 293.51 350.987 310.915 404.742 307.841C458.497 304.768 489.535 282.363 509.077 258.367" stroke="url(#paint1_linear)"/>
<path opacity="0.55" fill-rule="evenodd" clip-rule="evenodd" d="M252.262 186.904C258.151 186.904 262.925 182.021 262.925 175.998C262.925 169.974 258.151 165.091 252.262 165.091C246.374 165.091 241.6 169.974 241.6 175.998C241.6 182.021 246.374 186.904 252.262 186.904Z" fill="url(#paint2_linear)"/>
<path d="M252.262 169.956L231.984 123.318" stroke="url(#paint3_linear)"/>
<path d="M252.262 169.956V118.035" stroke="url(#paint4_linear)"/>
<path d="M252.262 169.956L272.432 123.318" stroke="url(#paint5_linear)"/>
<rect opacity="0.658877" x="227.383" y="115.65" width="9.95154" height="10.1792" fill="url(#paint6_linear)"/>
<rect opacity="0.658877" x="267.19" y="115.65" width="9.95154" height="10.1792" fill="url(#paint7_linear)"/>
<rect opacity="0.658877" x="247.286" y="108.379" width="9.95154" height="10.1792" fill="url(#paint8_linear)"/>
<path opacity="0.55" fill-rule="evenodd" clip-rule="evenodd" d="M252.262 325.477C258.151 325.477 262.925 330.36 262.925 336.383C262.925 342.407 258.151 347.29 252.262 347.29C246.374 347.29 241.6 342.407 241.6 336.383C241.6 330.36 246.374 325.477 252.262 325.477Z" fill="url(#paint9_linear)"/>
<path opacity="0.55" fill-rule="evenodd" clip-rule="evenodd" d="M298.284 209.378C302.09 214.353 309.104 215.251 313.949 211.385C318.795 207.519 319.638 200.352 315.832 195.378C312.026 190.403 305.012 189.504 300.166 193.37C295.32 197.237 294.478 204.403 298.284 209.378Z" fill="url(#paint10_linear)"/>
<path d="M311.918 198.5L336.332 151.435" stroke="url(#paint11_linear)"/>
<path d="M311.918 198.5L353.689 165.175" stroke="url(#paint12_linear)"/>
<path d="M311.918 198.5L362.475 185.605" stroke="url(#paint13_linear)"/>
<path opacity="0.658877" fill-rule="evenodd" clip-rule="evenodd" d="M339.528 142.626L345.96 151.033L337.771 157.567L331.339 149.16L339.528 142.626Z" fill="url(#paint14_linear)"/>
<path opacity="0.658877" fill-rule="evenodd" clip-rule="evenodd" d="M358.242 154.773L364.674 163.18L356.485 169.714L350.052 161.307L358.242 154.773Z" fill="url(#paint15_linear)"/>
<path opacity="0.55" fill-rule="evenodd" clip-rule="evenodd" d="M207.733 207.858C203.927 212.833 196.913 213.732 192.068 209.866C187.222 206 186.379 198.833 190.185 193.858C193.991 188.884 201.005 187.985 205.851 191.851C210.697 195.717 211.539 202.884 207.733 207.858Z" fill="url(#paint16_linear)"/>
<path d="M194.099 196.981L169.685 149.916" stroke="url(#paint17_linear)"/>
<path d="M194.099 196.981L152.328 163.656" stroke="url(#paint18_linear)"/>
<path d="M194.099 196.981L143.541 184.085" stroke="url(#paint19_linear)"/>
<path opacity="0.658877" fill-rule="evenodd" clip-rule="evenodd" d="M166.489 141.107L160.057 149.514L168.246 156.048L174.678 147.641L166.489 141.107Z" fill="url(#paint20_linear)"/>
<path opacity="0.658877" fill-rule="evenodd" clip-rule="evenodd" d="M140.76 174.735L134.328 183.142L142.518 189.675L148.95 181.268L140.76 174.735Z" fill="url(#paint21_linear)"/>
<path opacity="0.658877" fill-rule="evenodd" clip-rule="evenodd" d="M147.775 153.254L141.343 161.661L149.532 168.195L155.965 159.788L147.775 153.254Z" fill="url(#paint22_linear)"/>
<path opacity="0.55" fill-rule="evenodd" clip-rule="evenodd" d="M298.284 304.519C302.09 299.544 309.104 298.646 313.949 302.512C318.795 306.378 319.638 313.544 315.832 318.519C312.026 323.494 305.012 324.392 300.166 320.526C295.32 316.66 294.478 309.493 298.284 304.519Z" fill="url(#paint23_linear)"/>
<path d="M311.918 315.396L336.332 362.462" stroke="url(#paint24_linear)"/>
<path d="M311.918 315.396L353.689 348.722" stroke="url(#paint25_linear)"/>
<path d="M311.918 315.396L362.475 328.292" stroke="url(#paint26_linear)"/>
<path opacity="0.55" fill-rule="evenodd" clip-rule="evenodd" d="M207.733 302.996C203.927 298.022 196.913 297.123 192.068 300.989C187.222 304.855 186.379 312.022 190.185 316.997C193.991 321.971 201.005 322.87 205.851 319.004C210.697 315.138 211.539 307.971 207.733 302.996Z" fill="url(#paint27_linear)"/>
<path d="M194.099 313.874L169.685 360.939" stroke="url(#paint28_linear)"/>
<path d="M194.099 313.874L152.328 347.199" stroke="url(#paint29_linear)"/>
<path d="M194.099 313.874L143.541 326.77" stroke="url(#paint30_linear)"/>
<path opacity="0.658877" fill-rule="evenodd" clip-rule="evenodd" d="M140.76 336.12L134.328 327.713L142.518 321.18L148.95 329.587L140.76 336.12Z" fill="url(#paint31_linear)"/>
<path opacity="0.55" fill-rule="evenodd" clip-rule="evenodd" d="M322.375 258.5C322.375 264.513 327.157 269.388 333.056 269.388C338.954 269.388 343.736 264.513 343.736 258.5C343.736 252.487 338.954 247.612 333.056 247.612C327.157 247.612 322.375 252.487 322.375 258.5Z" fill="url(#paint32_linear)"/>
<path d="M338.972 258.5L384.644 237.793" stroke="url(#paint33_linear)"/>
<path d="M338.972 258.5H389.817" stroke="url(#paint34_linear)"/>
<path d="M338.972 258.5L384.644 279.096" stroke="url(#paint35_linear)"/>
<path opacity="0.545689" fill-rule="evenodd" clip-rule="evenodd" d="M182.149 258.5C182.149 264.513 177.367 269.388 171.469 269.388C165.57 269.388 160.788 264.513 160.788 258.5C160.788 252.487 165.57 247.612 171.469 247.612C177.367 247.612 182.149 252.487 182.149 258.5Z" fill="url(#paint36_linear)"/>
<path d="M165.553 258.5L119.881 237.793" stroke="url(#paint37_linear)"/>
<path d="M165.553 258.5H114.707" stroke="url(#paint38_linear)"/>
<path d="M165.553 258.5L119.881 279.096" stroke="url(#paint39_linear)"/>
<path opacity="0.658877" fill-rule="evenodd" clip-rule="evenodd" d="M112.371 233.095V243.257H122.339V233.095H112.371Z" fill="url(#paint40_linear)"/>
<path opacity="0.658877" fill-rule="evenodd" clip-rule="evenodd" d="M112.371 273.743V283.905H122.339V273.743H112.371Z" fill="url(#paint41_linear)"/>
<path opacity="0.658877" fill-rule="evenodd" clip-rule="evenodd" d="M105.251 253.419V263.581H115.219V253.419H105.251Z" fill="url(#paint42_linear)"/>
<path opacity="0.55" d="M331.178 256.406C331.178 299.508 296.963 334.431 254.78 334.431C212.596 334.431 178.381 299.508 178.381 256.406C178.381 213.304 212.596 178.381 254.78 178.381C296.963 178.381 331.178 213.304 331.178 256.406Z" stroke="url(#paint43_linear)"/>
<path d="M251.621 344.109L231.395 390.717" stroke="url(#paint44_linear)"/>
<path d="M251.621 344.109V395.996" stroke="url(#paint45_linear)"/>
<path d="M251.621 344.109L271.739 390.717" stroke="url(#paint46_linear)"/>
<rect opacity="0.658877" width="9.92621" height="10.1725" transform="matrix(1 0 0 -1 226.806 398.38)" fill="url(#paint47_linear)"/>
<rect opacity="0.658877" width="9.92621" height="10.1725" transform="matrix(1 0 0 -1 266.51 398.38)" fill="url(#paint48_linear)"/>
<rect opacity="0.658877" width="9.92621" height="10.1725" transform="matrix(1 0 0 -1 246.658 405.646)" fill="url(#paint49_linear)"/>
<rect opacity="0.658877" x="364.4" y="178.155" width="10.4209" height="10.6051" transform="rotate(52 364.4 178.155)" fill="url(#paint50_linear)"/>
<rect opacity="0.658877" width="10.4209" height="10.6051" transform="matrix(0.615662 -0.788011 -0.788011 -0.615662 338.673 372.46)" fill="url(#paint51_linear)"/>
<rect opacity="0.658877" width="10.4209" height="10.6051" transform="matrix(0.615662 -0.788011 -0.788011 -0.615662 364.336 339.612)" fill="url(#paint52_linear)"/>
<rect opacity="0.658877" width="10.4209" height="10.6051" transform="matrix(0.615662 -0.788011 -0.788011 -0.615662 357.473 360.7)" fill="url(#paint53_linear)"/>
<rect opacity="0.658877" x="166.058" y="371.13" width="10.4209" height="10.6051" transform="rotate(-128 166.058 371.13)" fill="url(#paint54_linear)"/>
<rect opacity="0.658877" x="147.257" y="359.37" width="10.4209" height="10.6051" transform="rotate(-128 147.257 359.37)" fill="url(#paint55_linear)"/>
<rect opacity="0.658877" x="391.163" y="235.432" width="9.92621" height="10.1725" transform="rotate(90 391.163 235.432)" fill="url(#paint56_linear)"/>
<rect opacity="0.658877" x="391.163" y="275.137" width="9.92621" height="10.1725" transform="rotate(90 391.163 275.137)" fill="url(#paint57_linear)"/>
<rect opacity="0.658877" x="398.429" y="255.284" width="9.92621" height="10.1725" transform="rotate(90 398.429 255.284)" fill="url(#paint58_linear)"/>
<path d="M259.02 203.825L314.216 259.02L259.02 314.216L203.825 259.02L259.02 203.825Z" fill="#202020" fill-opacity="0.3" stroke="url(#paint59_linear)"/>
<path fill-rule="evenodd" clip-rule="evenodd" d="M259.02 231.069L286.972 259.02L259.02 286.971L231.069 259.02L259.02 231.069Z" fill="#FF8E1E"/>
<defs>
<linearGradient id="paint0_linear" x1="470.065" y1="132.545" x2="190.661" y2="88.1641" gradientUnits="userSpaceOnUse">
<stop stop-color="#0533F5"/>
<stop offset="0.490467" stop-color="#F39949"/>
<stop offset="1" stop-color="#E4EBF2"/>
</linearGradient>
<linearGradient id="paint1_linear" x1="342.029" y1="188.473" x2="305.978" y2="315.012" gradientUnits="userSpaceOnUse">
<stop stop-color="#0533F5"/>
<stop offset="0.490467" stop-color="#F39949"/>
<stop offset="1" stop-color="#E4EBF2"/>
</linearGradient>
<linearGradient id="paint2_linear" x1="255.818" y1="161.713" x2="242.231" y2="171.355" gradientUnits="userSpaceOnUse">
<stop stop-color="#0533F5"/>
<stop offset="0.490467" stop-color="#F39949"/>
<stop offset="1" stop-color="#E4EBF2"/>
</linearGradient>
<linearGradient id="paint3_linear" x1="245.505" y1="116.095" x2="227.838" y2="121.67" gradientUnits="userSpaceOnUse">
<stop stop-color="#0533F5"/>
<stop offset="0.490467" stop-color="#F39949"/>
<stop offset="1" stop-color="#E4EBF2"/>
</linearGradient>
<linearGradient id="paint4_linear" x1="252.499" y1="109.994" x2="251.138" y2="110.021" gradientUnits="userSpaceOnUse">
<stop stop-color="#0533F5"/>
<stop offset="0.490467" stop-color="#F39949"/>
<stop offset="1" stop-color="#E4EBF2"/>
</linearGradient>
<linearGradient id="paint5_linear" x1="265.71" y1="116.095" x2="248.121" y2="121.616" gradientUnits="userSpaceOnUse">
<stop stop-color="#0533F5"/>
<stop offset="0.490467" stop-color="#F39949"/>
<stop offset="1" stop-color="#E4EBF2"/>
</linearGradient>
<linearGradient id="paint6_linear" x1="234.018" y1="114.073" x2="227.678" y2="118.572" gradientUnits="userSpaceOnUse">
<stop stop-color="#F39949"/>
<stop offset="1" stop-color="#E4EBF2"/>
</linearGradient>
<linearGradient id="paint7_linear" x1="273.825" y1="114.073" x2="267.484" y2="118.572" gradientUnits="userSpaceOnUse">
<stop stop-color="#F39949"/>
<stop offset="1" stop-color="#E4EBF2"/>
</linearGradient>
<linearGradient id="paint8_linear" x1="253.922" y1="106.802" x2="247.581" y2="111.301" gradientUnits="userSpaceOnUse">
<stop stop-color="#F39949"/>
<stop offset="1" stop-color="#E4EBF2"/>
</linearGradient>
<linearGradient id="paint9_linear" x1="255.818" y1="350.668" x2="242.231" y2="341.026" gradientUnits="userSpaceOnUse">
<stop stop-color="#0533F5"/>
<stop offset="0.490467" stop-color="#F39949"/>
<stop offset="1" stop-color="#E4EBF2"/>
</linearGradient>
<linearGradient id="paint10_linear" x1="320.971" y1="196.307" x2="304.106" y2="191.553" gradientUnits="userSpaceOnUse">
<stop stop-color="#0533F5"/>
<stop offset="0.490467" stop-color="#F39949"/>
<stop offset="1" stop-color="#E4EBF2"/>
</linearGradient>
<linearGradient id="paint11_linear" x1="351.271" y1="158.426" x2="334.574" y2="147.32" gradientUnits="userSpaceOnUse">
<stop stop-color="#0533F5"/>
<stop offset="0.490467" stop-color="#F39949"/>
<stop offset="1" stop-color="#E4EBF2"/>
</linearGradient>
<linearGradient id="paint12_linear" x1="360.481" y1="160.425" x2="359.881" y2="159.679" gradientUnits="userSpaceOnUse">
<stop stop-color="#0533F5"/>
<stop offset="0.490467" stop-color="#F39949"/>
<stop offset="1" stop-color="#E4EBF2"/>
</linearGradient>
<linearGradient id="paint13_linear" x1="364.006" y1="175.543" x2="348.203" y2="164.75" gradientUnits="userSpaceOnUse">
<stop stop-color="#0533F5"/>
<stop offset="0.490467" stop-color="#F39949"/>
<stop offset="1" stop-color="#E4EBF2"/>
</linearGradient>
<linearGradient id="paint14_linear" x1="345.208" y1="147.235" x2="337.259" y2="144.993" gradientUnits="userSpaceOnUse">
<stop stop-color="#F39949"/>
<stop offset="1" stop-color="#E4EBF2"/>
</linearGradient>
<linearGradient id="paint15_linear" x1="363.922" y1="159.382" x2="355.973" y2="157.14" gradientUnits="userSpaceOnUse">
<stop stop-color="#F39949"/>
<stop offset="1" stop-color="#E4EBF2"/>
</linearGradient>
<linearGradient id="paint16_linear" x1="185.046" y1="194.788" x2="201.911" y2="190.034" gradientUnits="userSpaceOnUse">
<stop stop-color="#0533F5"/>
<stop offset="0.490467" stop-color="#F39949"/>
<stop offset="1" stop-color="#E4EBF2"/>
</linearGradient>
<linearGradient id="paint17_linear" x1="154.746" y1="156.907" x2="171.443" y2="145.8" gradientUnits="userSpaceOnUse">
<stop stop-color="#0533F5"/>
<stop offset="0.490467" stop-color="#F39949"/>
<stop offset="1" stop-color="#E4EBF2"/>
</linearGradient>
<linearGradient id="paint18_linear" x1="145.536" y1="158.906" x2="146.136" y2="158.159" gradientUnits="userSpaceOnUse">
<stop stop-color="#0533F5"/>
<stop offset="0.490467" stop-color="#F39949"/>
<stop offset="1" stop-color="#E4EBF2"/>
</linearGradient>
<linearGradient id="paint19_linear" x1="160.39" y1="182.088" x2="165.714" y2="197.237" gradientUnits="userSpaceOnUse">
<stop stop-color="#0533F5"/>
<stop offset="0.490467" stop-color="#F39949"/>
<stop offset="1" stop-color="#E4EBF2"/>
</linearGradient>
<linearGradient id="paint20_linear" x1="160.809" y1="145.715" x2="168.758" y2="143.474" gradientUnits="userSpaceOnUse">
<stop stop-color="#F39949"/>
<stop offset="1" stop-color="#E4EBF2"/>
</linearGradient>
<linearGradient id="paint21_linear" x1="135.08" y1="179.343" x2="143.03" y2="177.101" gradientUnits="userSpaceOnUse">
<stop stop-color="#F39949"/>
<stop offset="1" stop-color="#E4EBF2"/>
</linearGradient>
<linearGradient id="paint22_linear" x1="142.095" y1="157.862" x2="150.044" y2="155.621" gradientUnits="userSpaceOnUse">
<stop stop-color="#F39949"/>
<stop offset="1" stop-color="#E4EBF2"/>
</linearGradient>
<linearGradient id="paint23_linear" x1="320.971" y1="317.59" x2="304.106" y2="322.344" gradientUnits="userSpaceOnUse">
<stop stop-color="#0533F5"/>
<stop offset="0.490467" stop-color="#F39949"/>
<stop offset="1" stop-color="#E4EBF2"/>
</linearGradient>
<linearGradient id="paint24_linear" x1="351.271" y1="355.471" x2="334.574" y2="366.577" gradientUnits="userSpaceOnUse">
<stop stop-color="#0533F5"/>
<stop offset="0.490467" stop-color="#F39949"/>
<stop offset="1" stop-color="#E4EBF2"/>
</linearGradient>
<linearGradient id="paint25_linear" x1="360.481" y1="353.471" x2="359.881" y2="354.218" gradientUnits="userSpaceOnUse">
<stop stop-color="#0533F5"/>
<stop offset="0.490467" stop-color="#F39949"/>
<stop offset="1" stop-color="#E4EBF2"/>
</linearGradient>
<linearGradient id="paint26_linear" x1="364.006" y1="338.354" x2="348.203" y2="349.147" gradientUnits="userSpaceOnUse">
<stop stop-color="#0533F5"/>
<stop offset="0.490467" stop-color="#F39949"/>
<stop offset="1" stop-color="#E4EBF2"/>
</linearGradient>
<linearGradient id="paint27_linear" x1="185.046" y1="316.067" x2="201.911" y2="320.821" gradientUnits="userSpaceOnUse">
<stop stop-color="#0533F5"/>
<stop offset="0.490467" stop-color="#F39949"/>
<stop offset="1" stop-color="#E4EBF2"/>
</linearGradient>
<linearGradient id="paint28_linear" x1="177.821" y1="368.229" x2="198.305" y2="360.516" gradientUnits="userSpaceOnUse">
<stop stop-color="#0533F5"/>
<stop offset="0.490467" stop-color="#F39949"/>
<stop offset="1" stop-color="#E4EBF2"/>
</linearGradient>
<linearGradient id="paint29_linear" x1="166.248" y1="352.361" x2="188.142" y2="332.442" gradientUnits="userSpaceOnUse">
<stop stop-color="#0533F5"/>
<stop offset="0.490467" stop-color="#F39949"/>
<stop offset="1" stop-color="#E4EBF2"/>
</linearGradient>
<linearGradient id="paint30_linear" x1="160.39" y1="328.767" x2="165.714" y2="313.618" gradientUnits="userSpaceOnUse">
<stop stop-color="#0533F5"/>
<stop offset="0.490467" stop-color="#F39949"/>
<stop offset="1" stop-color="#E4EBF2"/>
</linearGradient>
<linearGradient id="paint31_linear" x1="135.08" y1="331.512" x2="143.03" y2="333.754" gradientUnits="userSpaceOnUse">
<stop stop-color="#F39949"/>
<stop offset="1" stop-color="#E4EBF2"/>
</linearGradient>
<linearGradient id="paint32_linear" x1="347.044" y1="262.131" x2="337.07" y2="248.651" gradientUnits="userSpaceOnUse">
<stop stop-color="#0533F5"/>
<stop offset="0.490467" stop-color="#F39949"/>
<stop offset="1" stop-color="#E4EBF2"/>
</linearGradient>
<linearGradient id="paint33_linear" x1="391.718" y1="251.599" x2="385.828" y2="233.701" gradientUnits="userSpaceOnUse">
<stop stop-color="#0533F5"/>
<stop offset="0.490467" stop-color="#F39949"/>
<stop offset="1" stop-color="#E4EBF2"/>
</linearGradient>
<linearGradient id="paint34_linear" x1="397.692" y1="258.667" x2="397.679" y2="257.709" gradientUnits="userSpaceOnUse">
<stop stop-color="#0533F5"/>
<stop offset="0.490467" stop-color="#F39949"/>
<stop offset="1" stop-color="#E4EBF2"/>
</linearGradient>
<linearGradient id="paint35_linear" x1="391.718" y1="272.232" x2="385.884" y2="254.411" gradientUnits="userSpaceOnUse">
<stop stop-color="#0533F5"/>
<stop offset="0.490467" stop-color="#F39949"/>
<stop offset="1" stop-color="#E4EBF2"/>
</linearGradient>
<linearGradient id="paint36_linear" x1="157.48" y1="262.131" x2="167.455" y2="248.651" gradientUnits="userSpaceOnUse">
<stop stop-color="#0533F5"/>
<stop offset="0.490467" stop-color="#F39949"/>
<stop offset="1" stop-color="#E4EBF2"/>
</linearGradient>
<linearGradient id="paint37_linear" x1="112.807" y1="251.599" x2="118.697" y2="233.701" gradientUnits="userSpaceOnUse">
<stop stop-color="#0533F5"/>
<stop offset="0.490467" stop-color="#F39949"/>
<stop offset="1" stop-color="#E4EBF2"/>
</linearGradient>
<linearGradient id="paint38_linear" x1="106.832" y1="258.667" x2="106.846" y2="257.709" gradientUnits="userSpaceOnUse">
<stop stop-color="#0533F5"/>
<stop offset="0.490467" stop-color="#F39949"/>
<stop offset="1" stop-color="#E4EBF2"/>
</linearGradient>
<linearGradient id="paint39_linear" x1="112.807" y1="272.232" x2="118.64" y2="254.411" gradientUnits="userSpaceOnUse">
<stop stop-color="#0533F5"/>
<stop offset="0.490467" stop-color="#F39949"/>
<stop offset="1" stop-color="#E4EBF2"/>
</linearGradient>
<linearGradient id="paint40_linear" x1="110.827" y1="239.87" x2="115.482" y2="233.58" gradientUnits="userSpaceOnUse">
<stop stop-color="#F39949"/>
<stop offset="1" stop-color="#E4EBF2"/>
</linearGradient>
<linearGradient id="paint41_linear" x1="110.827" y1="280.518" x2="115.482" y2="274.228" gradientUnits="userSpaceOnUse">
<stop stop-color="#F39949"/>
<stop offset="1" stop-color="#E4EBF2"/>
</linearGradient>
<linearGradient id="paint42_linear" x1="103.707" y1="260.194" x2="108.362" y2="253.904" gradientUnits="userSpaceOnUse">
<stop stop-color="#F39949"/>
<stop offset="1" stop-color="#E4EBF2"/>
</linearGradient>
<linearGradient id="paint43_linear" x1="280.424" y1="153.556" x2="182.545" y2="223.132" gradientUnits="userSpaceOnUse">
<stop stop-color="#0533F5"/>
<stop offset="0.490467" stop-color="#F39949"/>
<stop offset="1" stop-color="#E4EBF2"/>
</linearGradient>
<linearGradient id="paint44_linear" x1="244.881" y1="397.935" x2="227.253" y2="392.383" gradientUnits="userSpaceOnUse">
<stop stop-color="#0533F5"/>
<stop offset="0.490467" stop-color="#F39949"/>
<stop offset="1" stop-color="#E4EBF2"/>
</linearGradient>
<linearGradient id="paint45_linear" x1="251.858" y1="404.032" x2="250.5" y2="404.005" gradientUnits="userSpaceOnUse">
<stop stop-color="#0533F5"/>
<stop offset="0.490467" stop-color="#F39949"/>
<stop offset="1" stop-color="#E4EBF2"/>
</linearGradient>
<linearGradient id="paint46_linear" x1="265.035" y1="397.935" x2="247.485" y2="392.437" gradientUnits="userSpaceOnUse">
<stop stop-color="#0533F5"/>
<stop offset="0.490467" stop-color="#F39949"/>
<stop offset="1" stop-color="#E4EBF2"/>
</linearGradient>
<linearGradient id="paint47_linear" x1="6.61824" y1="-1.57556" x2="0.285858" y2="2.90961" gradientUnits="userSpaceOnUse">
<stop stop-color="#F39949"/>
<stop offset="1" stop-color="#E4EBF2"/>
</linearGradient>
<linearGradient id="paint48_linear" x1="6.61824" y1="-1.57556" x2="0.285858" y2="2.90961" gradientUnits="userSpaceOnUse">
<stop stop-color="#F39949"/>
<stop offset="1" stop-color="#E4EBF2"/>
</linearGradient>
<linearGradient id="paint49_linear" x1="6.61824" y1="-1.57556" x2="0.285858" y2="2.90961" gradientUnits="userSpaceOnUse">
<stop stop-color="#F39949"/>
<stop offset="1" stop-color="#E4EBF2"/>
</linearGradient>
<linearGradient id="paint50_linear" x1="371.349" y1="176.512" x2="364.732" y2="181.231" gradientUnits="userSpaceOnUse">
<stop stop-color="#F39949"/>
<stop offset="1" stop-color="#E4EBF2"/>
</linearGradient>
<linearGradient id="paint51_linear" x1="6.94808" y1="-1.64258" x2="0.33119" y2="3.07695" gradientUnits="userSpaceOnUse">
<stop stop-color="#F39949"/>
<stop offset="1" stop-color="#E4EBF2"/>
</linearGradient>
<linearGradient id="paint52_linear" x1="6.94808" y1="-1.64258" x2="0.33119" y2="3.07695" gradientUnits="userSpaceOnUse">
<stop stop-color="#F39949"/>
<stop offset="1" stop-color="#E4EBF2"/>
</linearGradient>
<linearGradient id="paint53_linear" x1="6.94808" y1="-1.64258" x2="0.33119" y2="3.07695" gradientUnits="userSpaceOnUse">
<stop stop-color="#F39949"/>
<stop offset="1" stop-color="#E4EBF2"/>
</linearGradient>
<linearGradient id="paint54_linear" x1="173.006" y1="369.487" x2="166.389" y2="374.207" gradientUnits="userSpaceOnUse">
<stop stop-color="#F39949"/>
<stop offset="1" stop-color="#E4EBF2"/>
</linearGradient>
<linearGradient id="paint55_linear" x1="154.206" y1="357.727" x2="147.589" y2="362.447" gradientUnits="userSpaceOnUse">
<stop stop-color="#F39949"/>
<stop offset="1" stop-color="#E4EBF2"/>
</linearGradient>
<linearGradient id="paint56_linear" x1="397.781" y1="233.856" x2="391.449" y2="238.341" gradientUnits="userSpaceOnUse">
<stop stop-color="#F39949"/>
<stop offset="1" stop-color="#E4EBF2"/>
</linearGradient>
<linearGradient id="paint57_linear" x1="397.781" y1="273.561" x2="391.449" y2="278.046" gradientUnits="userSpaceOnUse">
<stop stop-color="#F39949"/>
<stop offset="1" stop-color="#E4EBF2"/>
</linearGradient>
<linearGradient id="paint58_linear" x1="405.047" y1="253.709" x2="398.715" y2="258.194" gradientUnits="userSpaceOnUse">
<stop stop-color="#F39949"/>
<stop offset="1" stop-color="#E4EBF2"/>
</linearGradient>
<linearGradient id="paint59_linear" x1="304.951" y1="231.732" x2="244.418" y2="222.117" gradientUnits="userSpaceOnUse">
<stop stop-color="#0533F5"/>
<stop offset="0.490467" stop-color="#F39949"/>
<stop offset="1" stop-color="#E4EBF2"/>
</linearGradient>
</defs>
</svg>
