<svg width="11" height="99" viewBox="0 0 11 99" fill="none" xmlns="http://www.w3.org/2000/svg">
<path fill-rule="evenodd" clip-rule="evenodd" d="M2.99301 0.630402L5.48602 3.16221L2.99301 5.6936L0.5 3.16221L2.99301 0.630402Z" fill="#0055FF"/>
<path fill-rule="evenodd" clip-rule="evenodd" d="M3.1334 38.9234L3.1334 37.5079L3.25703 37.4154L9.92291 39.682L10.0549 39.8397V41.2825L9.92331 41.4402L5.15396 43.0686V43.1059L9.92291 44.7243L10.0549 44.882V46.3066L9.92291 46.4643L3.25703 48.7308L3.133 48.6383V47.1954L3.25703 47.0469L7.93835 45.5945L7.94675 45.5849L7.96436 45.5576L3.25703 43.9383L3.1338 43.7902V42.31L3.25703 42.1618L7.99036 40.5335V40.524L3.25663 39.0716L3.1334 38.9234ZM3.1334 22.9176V21.4926L3.25703 21.3996L9.92291 24.2679L10.0549 24.4343V25.7481L9.92291 25.9149L3.25703 28.755L3.1338 28.6624V27.21L3.25703 27.0528L8.19242 25.0825L8.18362 25.0638L3.25663 23.0748L3.1334 22.9176Z" fill="white"/>
<path fill-rule="evenodd" clip-rule="evenodd" d="M6.84006 14.0077L6.9629 14.1463L6.94529 19.5127C7.53386 19.4571 7.94638 19.2351 8.28927 18.8467C8.64296 18.4559 8.83798 17.9389 8.83383 17.403C8.83383 16.561 8.53494 16.0523 7.90276 15.7194L7.77073 15.534L7.77073 14.2019L7.90276 14.1002C8.69299 14.2944 9.27275 14.8588 9.62405 15.3954C9.98415 15.9319 10.1598 16.5984 10.1598 17.3756C10.1598 18.4487 9.8173 19.3368 9.14111 20.0123C8.46492 20.6875 7.60388 21.0298 6.57639 21.0298C5.61012 21.0298 4.75828 20.7062 4.05568 20.0493C3.35308 19.3924 2.99298 18.5413 2.99298 17.5233C2.99298 16.4689 3.32667 15.6078 3.97686 14.97C4.62664 14.3314 5.5577 14.0077 6.63801 14.0077H6.84006ZM4.31055 17.5237C4.31055 18.467 4.91632 19.1886 5.73335 19.4202L5.73335 15.6082C5.15359 15.756 4.31055 16.2747 4.31055 17.5237ZM3.13342 31.0684L3.26546 31.2074H3.95045L3.97686 31.2352C3.74839 31.4203 3.54634 31.6701 3.37949 31.966C3.34241 32.0359 3.30719 32.1069 3.27386 32.1789C3.08981 32.5768 3.00178 33.03 3.00178 33.5205C3.00178 34.4363 3.35308 35.2413 4.03808 35.9074C4.72307 36.5734 5.58411 36.9066 6.59399 36.9066C7.60388 36.9066 8.46492 36.5734 9.14991 35.9074C9.83491 35.2413 10.1862 34.4363 10.1862 33.5205C10.1862 33.03 10.0982 32.5859 9.91413 32.1884C9.90614 32.1714 9.89815 32.1541 9.89006 32.1365C9.86249 32.0765 9.83372 32.0139 9.7997 31.9568C9.63285 31.6701 9.4484 31.4294 9.22874 31.2443C9.22433 31.2398 9.22654 31.2304 9.22874 31.2211C9.23094 31.2118 9.23314 31.2024 9.22874 31.1979H9.94014L10.0722 31.0593V29.8475L9.94014 29.7085H3.25706L3.12502 29.8471V31.0684H3.13342ZM8.85983 33.3076C8.85983 32.7154 8.65818 32.2249 8.24526 31.8178C7.98159 31.5498 7.64789 31.3647 7.23497 31.2721H5.8998C5.50489 31.3738 5.1796 31.5498 4.90752 31.8178C4.495 32.2345 4.29295 32.7245 4.29295 33.3076C4.29295 33.8906 4.50381 34.3068 4.91632 34.723C5.33804 35.1301 5.8914 35.343 6.57639 35.343C7.27018 35.343 7.82354 35.1393 8.23646 34.723C8.65818 34.3068 8.85983 33.8811 8.85983 33.3076Z" fill="white"/>
<path fill-rule="evenodd" clip-rule="evenodd" d="M6.04941 9.01148C6.04941 9.01148 5.89137 9.80739 5.75093 10.4639C5.61889 11.0656 5.45205 11.371 5.04833 11.371C4.61781 11.371 4.25771 10.9361 4.25771 10.0016C4.25771 9.08534 4.64422 8.57659 4.98672 8.57659L5.11875 8.41931V7.08726L4.99552 6.98517C4.09086 6.98517 3.01056 7.80889 3.01056 9.96466C3.01056 12.2126 4.26651 12.9159 5.07434 12.9159C5.75053 12.9159 6.54996 12.657 6.92766 10.9361L7.24375 9.45549C7.40219 8.70606 7.64786 8.39151 8.06078 8.39151C8.43849 8.39151 8.89502 8.78947 8.89502 9.82565C8.89502 10.788 8.45609 11.371 7.93795 11.3984L7.80591 11.5652V12.9251L7.93795 13.0267C9.09707 12.9064 10.1862 12.0001 10.1862 9.83478C10.1862 7.38313 8.76338 6.8835 8.01677 6.8835C7.01569 6.8835 6.3655 7.48521 6.04941 9.01148Z" fill="white"/>
<path opacity="0.478562" fill-rule="evenodd" clip-rule="evenodd" d="M9.41721 92.7955C9.67754 93.0558 9.80771 93.3693 9.80771 93.736V98.906H1.33771V98.004H3.42771L3.42771 93.736C3.42771 93.3693 3.55787 93.0558 3.81821 92.7955C4.07854 92.5352 4.39204 92.405 4.75871 92.405H8.47671C8.84337 92.405 9.15687 92.5352 9.41721 92.7955ZM8.90571 97.564V93.736C8.90571 93.6187 8.86354 93.5178 8.77921 93.4335C8.69487 93.3492 8.59404 93.307 8.47671 93.307H4.75871C4.64137 93.307 4.54054 93.3492 4.45621 93.4335C4.37187 93.5178 4.32971 93.6187 4.32971 93.736V97.564C4.32971 97.6813 4.37187 97.784 4.45621 97.872C4.54054 97.96 4.64137 98.004 4.75871 98.004H8.47671C8.59404 98.004 8.69487 97.96 8.77921 97.872C8.86354 97.784 8.90571 97.6813 8.90571 97.564ZM9.80771 86.0055C9.80771 85.6315 9.67754 85.3143 9.41721 85.054C9.15687 84.7936 8.84337 84.6635 8.47671 84.6635H3.42771V85.5655H8.47671C8.59404 85.5655 8.69487 85.6095 8.77921 85.6975C8.86354 85.7854 8.90571 85.8881 8.90571 86.0055V89.8335C8.90571 89.9508 8.86354 90.0516 8.77921 90.136C8.69487 90.2203 8.59404 90.2625 8.47671 90.2625H3.42771V91.1645H8.47671C8.84337 91.1645 9.15687 91.0343 9.41721 90.774C9.67754 90.5136 9.80771 90.2001 9.80771 89.8335V86.0055ZM1.33771 82.2129H2.23971V83.1149H1.33771L1.33771 82.2129ZM9.80771 82.2129H3.42771V83.1149H9.80771V82.2129ZM8.90571 78.0023H9.80771V79.0803C9.80771 79.447 9.67754 79.7605 9.41721 80.0208C9.15687 80.2812 8.84337 80.4113 8.47671 80.4113H1.33771V79.5093H8.47671C8.59404 79.5093 8.69487 79.4672 8.77921 79.3828C8.86354 79.2985 8.90571 79.1977 8.90571 79.0803V78.0023ZM9.80771 72.9998H8.90571V75.3318C8.90571 75.4491 8.86354 75.55 8.77921 75.6343C8.69487 75.7186 8.59404 75.7608 8.47671 75.7608H4.32971V72.9998H3.42771L3.42771 75.7608H1.33771V76.6628H8.47671C8.84337 76.6628 9.15687 76.5345 9.41721 76.2778C9.67754 76.0211 9.80771 75.7058 9.80771 75.3318V72.9998ZM9.41721 62.2412C9.67754 62.5015 9.80771 62.8187 9.80771 63.1927V67.0207C9.80771 67.3873 9.67754 67.7008 9.41721 67.9612C9.15687 68.2215 8.84337 68.3517 8.47671 68.3517H4.75871C4.39204 68.3517 4.07854 68.2215 3.81821 67.9612C3.55787 67.7008 3.42771 67.3873 3.42771 67.0207L3.42771 63.1927C3.42771 62.8187 3.55787 62.5015 3.81821 62.2412C4.07854 61.9808 4.39204 61.8507 4.75871 61.8507H8.47671C8.84337 61.8507 9.15687 61.9808 9.41721 62.2412ZM8.90571 63.1927V67.0207C8.90571 67.138 8.86354 67.2388 8.77921 67.3232C8.69487 67.4075 8.59404 67.4497 8.47671 67.4497H4.75871C4.64137 67.4497 4.54054 67.4075 4.45621 67.3232C4.37187 67.2388 4.32971 67.138 4.32971 67.0207V63.1927C4.32971 63.0753 4.37187 62.9745 4.45621 62.8902C4.54054 62.8058 4.64137 62.7637 4.75871 62.7637H8.47671C8.59404 62.7637 8.69487 62.8058 8.77921 62.8902C8.86354 62.9745 8.90571 63.0753 8.90571 63.1927ZM4.75871 59.5541H9.80771V60.4561H3.42771L3.42771 55.2861C3.42771 54.9194 3.55787 54.6059 3.81821 54.3456C4.07854 54.0853 4.39204 53.9551 4.75871 53.9551H9.80771V54.8571H4.75871C4.64137 54.8571 4.54054 54.8993 4.45621 54.9836C4.37187 55.0679 4.32971 55.1688 4.32971 55.2861L4.32971 59.1141C4.32971 59.2314 4.37187 59.3341 4.45621 59.4221C4.54054 59.5101 4.64137 59.5541 4.75871 59.5541Z" fill="white"/>
</svg>
