<svg width="132" height="60" viewBox="0 0 132 60" fill="none" xmlns="http://www.w3.org/2000/svg">
<path fill-rule="evenodd" clip-rule="evenodd" d="M7.29676 22.2381L58.7829 14.4867L44.392 58.7602L7.29676 22.2381Z" stroke="white"/>
<path d="M18.5523 43.6528L18.3884 44.6392L19.2759 44.1786L54.3785 25.963L55.0969 25.5903L54.442 25.1147L25.8229 4.32967L25.1684 3.85439L25.0358 4.65223L18.5523 43.6528Z" stroke="white"/>
<path d="M36.3183 39.6519L37.2058 40.1125L37.0418 39.1261L32.6101 12.4675L32.4774 11.6697L31.823 12.1449L12.2605 26.3524L11.6057 26.828L12.3241 27.2008L36.3183 39.6519Z" stroke="white"/>
<path d="M35.9681 27.7814L36.6809 27.0796L35.6917 26.9307L21.335 24.7692L20.5349 24.6488L20.785 25.4182L24.7979 37.7637L25.0479 38.5328L25.6242 37.9655L35.9681 27.7814Z" stroke="white"/>
<path fill-rule="evenodd" clip-rule="evenodd" d="M112.852 18.7136V17.1052H111.225V18.7136H112.852ZM73.3078 28.5726C73.8501 28.5726 74.3146 28.3839 74.7013 28.0066C75.088 27.6294 75.2813 27.1727 75.2813 26.6365V22.69H71.0781V24.3133H73.6392V26.4131C73.6392 26.6316 73.6041 26.778 73.5338 26.8525C73.4635 26.9269 73.3128 26.9642 73.0818 26.9642H66.6187C66.3978 26.9642 66.2496 26.9269 66.1743 26.8525C66.099 26.778 66.0613 26.6316 66.0613 26.4131V20.0093C66.0613 19.7909 66.099 19.6444 66.1743 19.57C66.2496 19.4955 66.3978 19.4583 66.6187 19.4583H73.0818C73.3128 19.4583 73.4635 19.4955 73.5338 19.57C73.6041 19.6444 73.6392 19.7909 73.6392 20.0093V20.4263H75.2813V19.7859C75.2813 19.2498 75.088 18.7931 74.7013 18.4158C74.3146 18.0385 73.8501 17.8499 73.3078 17.8499H66.3928C65.8504 17.8499 65.3884 18.0385 65.0067 18.4158C64.6251 18.7931 64.4343 19.2498 64.4343 19.7859V26.6365C64.4343 27.1727 64.6251 27.6294 65.0067 28.0066C65.3884 28.3839 65.8504 28.5726 66.3928 28.5726H73.3078ZM79.6154 28.5726V22.0943C79.6154 21.8758 79.6531 21.7294 79.7284 21.6549C79.8037 21.5805 79.9519 21.5432 80.1728 21.5432H84.828V19.9348H79.9469C79.4045 19.9348 78.9425 20.1235 78.5608 20.5007C78.1792 20.878 77.9884 21.3347 77.9884 21.8709V28.5726H79.6154ZM95.8829 21.8709V28.5726H88.9528C88.4105 28.5726 87.9485 28.3839 87.5668 28.0066C87.1852 27.6294 86.9943 27.1727 86.9943 26.6365V23.4495H94.2408V22.0943C94.2408 21.8758 94.2056 21.7294 94.1353 21.6549C94.065 21.5805 93.9194 21.5432 93.6984 21.5432H86.9943V19.9348H93.9244C94.4668 19.9348 94.9288 20.1235 95.3104 20.5007C95.6921 20.878 95.8829 21.3347 95.8829 21.8709ZM94.2408 26.9642H89.1788C88.9579 26.9642 88.8097 26.9269 88.7344 26.8525C88.6591 26.778 88.6214 26.6316 88.6214 26.4131V24.9536H94.2408V26.9642ZM108.955 19.9348L104.134 28.5726H102.507L97.686 19.9348H99.5692L103.32 26.7557L107.072 19.9348H108.955ZM112.852 19.9348V28.5726H111.225V19.9348H112.852ZM120.917 28.5726V26.9642H117.889C117.668 26.9642 117.52 26.9269 117.445 26.8525C117.369 26.778 117.332 26.6316 117.332 26.4131V21.5432H120.917V19.9348H117.332V17.2095H115.705V26.6365C115.705 27.1727 115.895 27.6294 116.277 28.0066C116.659 28.3839 117.121 28.5726 117.663 28.5726H120.917ZM131.428 31.3128C131.046 31.6901 130.584 31.8787 130.042 31.8787H124.648V30.2554H129.816C130.037 30.2554 130.185 30.2182 130.26 30.1437C130.335 30.0693 130.373 29.9228 130.373 29.7044V28.5726H125.07C124.528 28.5726 124.066 28.3839 123.684 28.0066C123.302 27.6294 123.111 27.1727 123.111 26.6365V19.9646H124.739V26.4131C124.739 26.6316 124.776 26.778 124.852 26.8525C124.927 26.9269 125.075 26.9642 125.296 26.9642H129.816C130.037 26.9642 130.185 26.9269 130.26 26.8525C130.335 26.778 130.373 26.6316 130.373 26.4131V19.9646H132V29.9427C132 30.4788 131.809 30.9355 131.428 31.3128ZM66.0764 47.0394V42.4972H73.9104V47.0394H75.5525V36.3167H73.9104V40.859H66.0764V36.3167H64.4493V47.0394H66.0764ZM86.6359 46.4735C86.2542 46.8508 85.7922 47.0394 85.2499 47.0394H80.2783C79.7359 47.0394 79.2739 46.8508 78.8923 46.4735C78.5106 46.0962 78.3198 45.6395 78.3198 45.1034V38.4017H79.9469V44.88C79.9469 45.0984 79.9845 45.2449 80.0598 45.3193C80.1352 45.3938 80.2833 45.431 80.5043 45.431H85.0239C85.2449 45.431 85.393 45.3938 85.4683 45.3193C85.5437 45.2449 85.5813 45.0984 85.5813 44.88V38.4017H87.2084V45.1034C87.2084 45.6395 87.0175 46.0962 86.6359 46.4735ZM96.5592 47.0394C97.1016 47.0394 97.5636 46.8508 97.9452 46.4735C98.3269 46.0962 98.5177 45.6395 98.5177 45.1034V40.3377C98.5177 39.8016 98.3269 39.3449 97.9452 38.9676C97.5636 38.5903 97.1016 38.4017 96.5592 38.4017H91.2562V35.5721H89.6291V47.0394H96.5592ZM91.8136 45.431H96.3332C96.5542 45.431 96.7023 45.3938 96.7777 45.3193C96.853 45.2449 96.8907 45.0984 96.8907 44.88V40.5611C96.8907 40.3427 96.853 40.1963 96.7777 40.1218C96.7023 40.0473 96.5542 40.0101 96.3332 40.0101H91.8136C91.5927 40.0101 91.4445 40.0473 91.3692 40.1218C91.2939 40.1963 91.2562 40.3427 91.2562 40.5611V44.88C91.2562 45.0984 91.2939 45.2449 91.3692 45.3193C91.4445 45.3938 91.5927 45.431 91.8136 45.431Z" fill="white"/>
</svg>
